#N canvas 702 1436 955 672 12;
#X declare -lib iemlib;
#X obj 205 382 brds~;
#X msg 205 289 pitch \$1;
#X msg 114 289 shape \$1;
#X msg 274 278 timbre \$1;
#X msg 361 278 colour \$1;
#X obj 361 221 f;
#X obj 277 224 f;
#X obj 105 228 f;
#X obj 372 35 inlet;
#X obj 230 38 inlet;
#X obj 276 37 inlet;
#X obj 322 37 inlet;
#X obj 206 510 outlet~;
#X obj 201 235 * 128;
#X obj 184 198 - 63;
#X obj 203 263 + 9789;
#X obj 206 428 bob~;
#X obj 492 374 / 25;
#X obj 416 375 pack 0 50;
#X obj 416 400 line~;
#X obj 491 402 line~;
#X obj 503 315 r \$0-reson-osc-s;
#X obj 372 303 r \$0-cutoff-osc-s;
#X obj 472 38 inlet;
#X obj 421 36 inlet;
#X obj 184 163 r \$0-pitch-osc-s;
#X obj 268 187 r \$0-timbre-osc-s;
#X obj 398 189 r \$0-color-osc-s;
#X obj 54 172 r \$0-shape-osc-s;
#N canvas 640 289 878 741 statesave 0;
#X obj 137 29 loadbang;
#X obj 294 447 textfile;
#X msg 576 430 rewind;
#X msg 533 430 bang;
#X obj 42 691 textfile;
#X obj 533 391 t b b;
#X obj 43 357 f;
#X obj 56 580 f;
#X obj -16 401 t b b b;
#X msg 119 580 clear;
#X obj 204 147 outlet;
#X text 246 151 INSTANCE NUMBER;
#X obj 165 83 f \$1;
#X obj 165 119 t f f f;
#X obj 138 62 t b b;
#X obj -16 378 bng 15 250 50 0 empty empty empty 17 7 0 10 -262144
-1 -1;
#X obj -16 234 r SAVE-S;
#X msg 55 651 write statesave/\$1-osc-ss.txt;
#X msg 295 423 read statesave/\$1-osc-ss.txt;
#X obj 139 322 r \$0-reson-osc-s;
#X obj 110 296 r \$0-cutoff-osc-s;
#X obj 61 188 r \$0-pitch-osc-s;
#X obj 71 217 r \$0-timbre-osc-s;
#X obj 82 246 r \$0-color-osc-s;
#X obj 95 272 r \$0-shape-osc-s;
#X obj 43 400 pack f f f f f f;
#X obj 294 469 unpack f f f f f f;
#X obj 298 499 s \$0-pitch-osc-r;
#X obj 308 528 s \$0-timbre-osc-r;
#X obj 319 557 s \$0-color-osc-r;
#X obj 332 583 s \$0-shape-osc-r;
#X obj 347 607 s \$0-cutoff-osc-r;
#X obj 376 633 s \$0-reson-osc-r;
#X msg 43 438 set \$1 \$2 \$3 \$4 \$5 \$6;
#X obj 211 28 r create-bang;
#X obj -1 99 r \$1-synth-back;
#X obj 554 307 delay 10;
#X obj 24 71 r \$1-fx-send;
#X obj 46 133 r \$1-lfo-trig;
#X connect 0 0 14 0;
#X connect 1 0 26 0;
#X connect 2 0 1 0;
#X connect 3 0 1 0;
#X connect 5 0 3 0;
#X connect 5 1 2 0;
#X connect 6 0 25 0;
#X connect 7 0 17 0;
#X connect 8 0 7 0;
#X connect 8 1 6 0;
#X connect 8 2 9 0;
#X connect 9 0 4 0;
#X connect 12 0 13 0;
#X connect 13 0 7 1;
#X connect 13 1 18 0;
#X connect 13 2 10 0;
#X connect 14 0 36 0;
#X connect 14 1 12 0;
#X connect 15 0 8 0;
#X connect 16 0 15 0;
#X connect 17 0 4 0;
#X connect 18 0 1 0;
#X connect 19 0 25 5;
#X connect 20 0 25 4;
#X connect 21 0 6 1;
#X connect 22 0 25 1;
#X connect 23 0 25 2;
#X connect 24 0 25 3;
#X connect 25 0 33 0;
#X connect 26 0 27 0;
#X connect 26 1 28 0;
#X connect 26 2 29 0;
#X connect 26 3 30 0;
#X connect 26 4 31 0;
#X connect 26 5 32 0;
#X connect 33 0 4 0;
#X connect 34 0 14 0;
#X connect 35 0 15 0;
#X connect 36 0 5 0;
#X connect 37 0 15 0;
#X connect 38 0 15 0;
#X restore 749 107 pd statesave;
#X obj 711 275 f \$0;
#X obj 707 178 loadbang;
#X obj 105 260 clip 0 1;
#X obj 277 253 clip 0 1;
#X obj 361 250 clip 0 1;
#X obj 371 341 clip 20 20000;
#X obj 547 349 clip 0 200;
#X obj 714 382 iem_s;
#X msg 764 344 set \$1-osc-instance;
#X obj 710 238 delay 5;
#X obj 727 436 declare -lib iemlib;
#X obj 347 508 throw~ \$1-osc;
#X obj 763 276 f \$1;
#X obj 797 214 bang;
#X obj 805 179 r create-bang;
#X obj 787 239 t a a;
#X floatatom 22 89 5 0 1 2 shape #0-shape-osc-r #0-shape-osc-s;
#X floatatom 24 39 5 36 88 2 pitch - #0-pitch-osc-s;
#X floatatom 73 39 5 0 1 2 timbre #0-timbre-osc-r #0-timbre-osc-s;
#X floatatom 126 41 5 0 1 2 colour #0-color-osc-r #0-color-osc-s;
#X floatatom 130 89 5 0 200 2 reson #0-reson-osc-r #0-reson-osc-s;
#X floatatom 70 89 7 0 0 2 cutoff #0-cutoff-osc-r #0-cutoff-osc-s;
#X obj 504 95 s \$0-shape-osc-r;
#X obj 244 93 s \$0-timbre-osc-r;
#X obj 378 93 s \$0-color-osc-r;
#X obj 448 248 s \$0-cutoff-osc-r;
#X obj 580 251 s \$0-reson-osc-r;
#X connect 0 0 16 0;
#X connect 1 0 0 0;
#X connect 2 0 0 0;
#X connect 3 0 0 0;
#X connect 4 0 0 0;
#X connect 5 0 34 0;
#X connect 6 0 33 0;
#X connect 7 0 32 0;
#X connect 8 0 7 0;
#X connect 8 0 52 0;
#X connect 9 0 14 0;
#X connect 9 0 47 0;
#X connect 10 0 6 0;
#X connect 10 0 53 0;
#X connect 11 0 5 0;
#X connect 11 0 54 0;
#X connect 13 0 15 0;
#X connect 14 0 13 0;
#X connect 15 0 1 0;
#X connect 16 0 12 0;
#X connect 16 0 41 0;
#X connect 17 0 20 0;
#X connect 18 0 19 0;
#X connect 19 0 16 1;
#X connect 20 0 16 2;
#X connect 21 0 36 0;
#X connect 22 0 35 0;
#X connect 23 0 36 0;
#X connect 23 0 56 0;
#X connect 24 0 35 0;
#X connect 24 0 55 0;
#X connect 25 0 14 0;
#X connect 26 0 6 0;
#X connect 27 0 5 0;
#X connect 28 0 7 0;
#X connect 30 0 37 0;
#X connect 31 0 39 0;
#X connect 31 0 42 0;
#X connect 32 0 2 0;
#X connect 33 0 3 0;
#X connect 34 0 4 0;
#X connect 35 0 18 0;
#X connect 36 0 17 0;
#X connect 38 0 37 1;
#X connect 39 0 30 0;
#X connect 42 0 38 0;
#X connect 43 0 45 0;
#X connect 44 0 43 0;
#X connect 45 0 42 0;
#X connect 45 1 39 0;
#X coords 0 -1 1 1 200 130 1 0 0;
