#N canvas 120 1244 1683 755 12;
#X obj 366 603 clds~;
#X msg 55 424 mix \$1;
#X msg 165 426 position \$1;
#X msg 322 427 size \$1;
#X msg 446 437 pitch \$1;
#X msg 554 435 density \$1;
#X msg 672 472 texture \$1;
#X msg 752 473 spread \$1;
#X msg 826 473 feedback \$1;
#X msg 920 474 reverb \$1;
#X msg 995 476 mode \$1;
#X msg 1151 481 bypass \$1;
#X msg 1068 480 freeze \$1;
#X obj 19 478 inlet~;
#X obj 243 711 outlet~;
#X obj 321 709 outlet~;
#X floatatom 15 42 5 0 1 2 mix #1-mix-clds-r #1-mix-clds-s;
#X floatatom 60 42 5 0 1 2 position #1-position-clds-r #1-position-clds-s
;
#X floatatom 123 42 5 0 1 2 size #1-size-clds-r #1-size-clds-s;
#X floatatom 172 42 5 0 1 2 pitch #1-pitch-clds-r #1-pitch-clds-s;
#X floatatom 221 41 5 0 1 2 density #1-density-clds-r #1-density-clds-s
;
#X floatatom 280 40 5 0 1 2 texture #1-texture-clds-r #1-texture-clds-s
;
#X floatatom 15 85 5 0 1 2 spread #1-spread-clds-r #1-spread-clds-s
;
#X floatatom 66 85 5 0 1 2 reverb #1-rev-clds-r #1-rev-clds-s;
#X floatatom 123 85 5 0 1 2 fb #1-fb-clds-r #1-fb-clds-s;
#X floatatom 172 85 5 0 3 2 mode #1-mode-clds-r #1-mode-clds-s;
#X obj 51 395 clip 0 1;
#X obj 164 393 clip 0 1;
#X obj 319 401 clip 0 1;
#X obj 429 398 clip 0 1;
#X obj 572 402 clip 0 1;
#X obj 670 447 clip 0 1;
#X obj 752 446 clip 0 1;
#X obj 937 429 clip 0 1;
#X obj 834 442 clip 0 1;
#X obj 1003 449 clip 0 3;
#X obj 230 70 tgl 15 0 \$1-freeze-clds-s \$1-freeze-clds-r freeze 17
7 0 10 -262144 -1 -1 0 1;
#X obj 231 93 tgl 15 0 \$1-bypass-clds-s \$1-bypass-clds-r bypass 17
7 0 10 -262144 -1 -1 0 1;
#X obj 564 606 loadbang;
#X obj 564 630 f \$0;
#X floatatom 564 652 5 0 0 0 - - -;
#X obj 564 690 outlet;
#N canvas 0 1103 1920 1005 statesave 0;
#X obj 512 84 loadbang;
#X obj 669 502 textfile;
#X msg 951 485 rewind;
#X msg 908 485 bang;
#X obj 417 746 textfile;
#X obj 908 446 t b b;
#X obj 418 412 f;
#X obj 431 635 f;
#X obj 359 456 t b b b;
#X msg 494 635 clear;
#X obj 579 202 outlet;
#X text 621 206 INSTANCE NUMBER;
#X obj 540 138 f \$1;
#X obj 540 174 t f f f;
#X obj 513 117 t b b;
#X obj 359 433 bng 15 250 50 0 empty empty empty 17 7 0 10 -262144
-1 -1;
#X obj 359 289 r SAVE-S;
#X msg 430 706 write statesave/\$1-clouds-ss.txt;
#X msg 670 478 read statesave/\$1-clouds-ss.txt;
#X obj 418 455 pack f f f f f f f f f f f f;
#X msg 355 493 set \$1 \$2 \$3 \$4 \$5 \$6 \$7 \$8 \$9 \$10 \$11 \$12
;
#X obj 692 524 unpack f f f f f f f f f f f f;
#X obj 438 246 r \$1-mix-clds-s;
#X obj 442 270 r \$1-position-clds-s;
#X obj 455 295 r \$1-size-clds-s;
#X obj 470 318 r \$1-pitch-clds-s;
#X obj 482 343 r \$1-density-clds-s;
#X obj 498 369 r \$1-spread-clds-s;
#X obj 585 241 r \$1-fb-clds-s;
#X obj 605 267 r \$1-rev-clds-s;
#X obj 629 292 r \$1-freeze-clds-s;
#X obj 651 317 r \$1-mode-clds-s;
#X obj 672 342 r \$1-bypass-clds-s;
#X obj 686 366 r \$1-texture-clds-s;
#X obj 693 578 s \$1-mix-clds-r;
#X obj 701 604 s \$1-position-clds-r;
#X obj 711 628 s \$1-size-clds-r;
#X obj 726 650 s \$1-pitch-clds-r;
#X obj 738 676 s \$1-density-clds-r;
#X obj 754 702 s \$1-spread-clds-r;
#X obj 841 574 s \$1-fb-clds-r;
#X obj 859 599 s \$1-rev-clds-r;
#X obj 885 625 s \$1-freeze-clds-r;
#X obj 907 650 s \$1-mode-clds-r;
#X obj 928 675 s \$1-bypass-clds-r;
#X obj 942 699 s \$1-texture-clds-r;
#X obj 959 351 delay 50;
#X connect 0 0 14 0;
#X connect 1 0 21 0;
#X connect 2 0 1 0;
#X connect 3 0 1 0;
#X connect 5 0 3 0;
#X connect 5 1 2 0;
#X connect 6 0 19 0;
#X connect 7 0 17 0;
#X connect 8 0 7 0;
#X connect 8 1 6 0;
#X connect 8 2 9 0;
#X connect 9 0 4 0;
#X connect 12 0 13 0;
#X connect 13 0 7 1;
#X connect 13 1 18 0;
#X connect 13 2 10 0;
#X connect 14 0 46 0;
#X connect 14 1 12 0;
#X connect 15 0 8 0;
#X connect 16 0 15 0;
#X connect 17 0 4 0;
#X connect 18 0 1 0;
#X connect 19 0 20 0;
#X connect 20 0 4 0;
#X connect 21 0 34 0;
#X connect 21 1 35 0;
#X connect 21 2 36 0;
#X connect 21 3 37 0;
#X connect 21 4 38 0;
#X connect 21 5 39 0;
#X connect 21 6 40 0;
#X connect 21 7 41 0;
#X connect 21 8 42 0;
#X connect 21 9 43 0;
#X connect 21 10 44 0;
#X connect 21 11 45 0;
#X connect 22 0 6 1;
#X connect 23 0 19 1;
#X connect 24 0 19 2;
#X connect 25 0 19 3;
#X connect 26 0 19 4;
#X connect 27 0 19 5;
#X connect 28 0 19 6;
#X connect 29 0 19 7;
#X connect 30 0 19 8;
#X connect 31 0 19 9;
#X connect 32 0 19 10;
#X connect 33 0 19 11;
#X connect 46 0 5 0;
#X restore 1072 129 pd statesave;
#X obj 197 216 inlet;
#X obj 248 217 inlet;
#X obj 291 218 inlet;
#X obj 334 218 inlet;
#X obj 385 219 inlet;
#X obj 428 220 inlet;
#X obj 48 363 r \$1-mix-clds-s;
#X obj 167 359 r \$1-position-clds-s;
#X obj 319 369 r \$1-size-clds-s;
#X obj 446 369 r \$1-pitch-clds-s;
#X obj 575 371 r \$1-density-clds-s;
#X obj 761 380 r \$1-spread-clds-s;
#X obj 667 416 r \$1-texture-clds-s;
#X obj 832 336 r \$1-fb-clds-s;
#X obj 940 372 r \$1-rev-clds-s;
#X obj 1004 405 r \$1-mode-clds-s;
#X obj 1076 363 r \$1-freeze-clds-s;
#X obj 1152 440 r \$1-bypass-clds-s;
#X connect 0 0 14 0;
#X connect 0 1 15 0;
#X connect 1 0 0 0;
#X connect 2 0 0 0;
#X connect 3 0 0 0;
#X connect 4 0 0 0;
#X connect 5 0 0 0;
#X connect 6 0 0 0;
#X connect 7 0 0 0;
#X connect 8 0 0 0;
#X connect 9 0 0 0;
#X connect 10 0 0 0;
#X connect 11 0 0 0;
#X connect 12 0 0 0;
#X connect 13 0 0 0;
#X connect 26 0 1 0;
#X connect 27 0 2 0;
#X connect 28 0 3 0;
#X connect 29 0 4 0;
#X connect 30 0 5 0;
#X connect 31 0 6 0;
#X connect 32 0 7 0;
#X connect 33 0 9 0;
#X connect 34 0 8 0;
#X connect 35 0 10 0;
#X connect 38 0 39 0;
#X connect 39 0 40 0;
#X connect 40 0 41 0;
#X connect 43 0 26 0;
#X connect 44 0 27 0;
#X connect 45 0 28 0;
#X connect 46 0 29 0;
#X connect 47 0 30 0;
#X connect 48 0 31 0;
#X connect 49 0 26 0;
#X connect 50 0 27 0;
#X connect 51 0 28 0;
#X connect 52 0 29 0;
#X connect 53 0 30 0;
#X connect 54 0 32 0;
#X connect 55 0 31 0;
#X connect 56 0 34 0;
#X connect 57 0 33 0;
#X connect 58 0 35 0;
#X connect 59 0 12 0;
#X connect 60 0 11 0;
#X coords 0 -1 1 1 330 120 2 0 0;
