#N canvas 359 105 1680 977 12;
#X floatatom 118 256 0 0 0 0 - - -;
#X obj 118 168 cputime;
#X obj 118 28 loadbang;
#X obj 118 112 metro 1000;
#X msg 118 56 1;
#X floatatom 118 84 0 0 0 0 - - -;
#X obj 118 140 t b b;
#X obj 118 228 * 0.1;
#X obj 118 197 int;
#X text 163 84 <-- on/off;
#X obj 235 255 s CPU;
#X floatatom 13 21 5 0 0 1 CPU% CPU -;
#X connect 0 0 10 0;
#X connect 1 0 8 0;
#X connect 2 0 4 0;
#X connect 3 0 6 0;
#X connect 4 0 5 0;
#X connect 5 0 3 0;
#X connect 6 0 1 0;
#X connect 6 1 1 1;
#X connect 7 0 0 0;
#X connect 8 0 7 0;
#X coords 0 -1 1 1 85 60 1 0 0;
