#N canvas 284 1111 1550 949 10;
#X obj 2 16 tgl 15 0 empty empty gate 17 7 0 10 -262144 -1 -1 0 1;
#X obj 91 26 vsl 15 128 0 1 0 1 \$1-contour-ele-s \$1-contour-ele-r
contour 0 -9 0 10 -204800 -1 -1 8100 1;
#X obj 58 26 vsl 15 128 -1 1 0 1 \$1-pitch-ele-s \$1-pitch-ele-r pitch
0 -9 0 10 -204786 -1 -1 7200 1;
#X obj 137 26 vsl 15 128 0 1 0 1 \$1-bowlev-ele-s \$1-bowlev-ele-r
bow_level 0 -9 0 10 -261234 -1 -1 10000 1;
#X obj 195 26 vsl 15 128 0 1 0 1 \$1-bowtimbre-ele-s \$1-bowtimbre-ele-r
bow_timbre 0 -9 0 10 -261234 -1 -1 10000 1;
#X obj 3 117 tgl 15 1 empty empty bypass 17 7 0 10 -262144 -1 -1 0
1;
#X msg 877 873 position \$1;
#X msg 169 572 pitch \$1;
#X msg 32 369 bypass \$1;
#X obj 265 735 lmnts~;
#X msg 222 533 contour \$1;
#X msg 208 432 bow_level \$1;
#X msg 280 481 bow_timbre \$1;
#X obj 263 26 vsl 15 128 0 1 0 1 \$1-blowlev-ele-s \$1-blowlev-ele-r
blow_level 0 -9 0 10 -258113 -1 -258113 8500 1;
#X obj 328 26 vsl 15 128 0 1 0 1 \$1-blowflow-ele-s \$1-blowflow-ele-r
blow_flow 0 -9 0 10 -258113 -33289 -258113 8500 1;
#X msg 263 359 blow_level \$1;
#X obj 392 26 vsl 15 128 0 1 0 1 \$1-blowtimb-ele-s \$1-blowtimb-ele-r
blow_timbre 0 -9 0 10 -258113 -1 -258113 10300 1;
#X msg 686 432 blow_timbre \$1;
#X msg 392 518 blow_flow \$1;
#X msg 543 651 strike_level \$1;
#X msg 732 545 strike_mallet \$1;
#X msg 363 801 strike_timbre \$1;
#X msg 490 731 resonator \$1;
#X msg 518 377 geometry \$1;
#X msg 765 338 brightness \$1;
#X msg 720 901 damping \$1;
#X obj 426 44 vsl 15 128 0 1 0 1 \$1-modpitch-ele-s \$1-modpitch-ele-r
mod_pitch 0 -9 0 10 -200678 -1 -1 9300 1;
#X msg 466 907 space \$1;
#X msg 1277 176 mod_pitch \$1;
#X obj 448 59 vsl 15 128 0 1 0 1 \$1-moddepth-ele-s \$1-moddepth-ele-r
mod_depth 0 -9 0 10 -151532 -1 -1 11100 1;
#X msg 1311 246 mod_depth \$1;
#X obj 448 231 tgl 15 1 empty empty easter_egg -15 -9 0 10 -262144
-1 -1 0 1;
#X msg 1041 478 easter_egg \$1;
#X msg 30 604 gate \$1;
#X obj 471 74 vsl 15 128 0 32768 0 1 \$1-seed-ele-s \$1-seed-ele-r
seed 0 -9 0 10 -159808 -1 -1 2700 1;
#X msg 1378 376 seed \$1;
#X obj 1078 25 cpu;
#X obj 6 173 hsl 128 15 0 3 0 0 \$1-res-ele-s \$1-res-ele-r Resonator
-2 -8 0 10 -262144 -1 -1 4400 1;
#X obj 6 208 hsl 128 15 0 1 0 0 \$1-geo-ele-s \$1-geo-ele-r geometry
-2 -8 0 10 -262144 -1 -1 5600 1;
#X obj 6 242 hsl 128 15 0 1 0 0 \$1-bright-ele-s \$1-bright-ele-r brightness
-2 -8 0 10 -203904 -1 -1 10400 1;
#X obj 151 206 hsl 128 15 0 1 0 0 \$1-mallet-ele-s \$1-mallet-ele-r
Strike_mallet -2 -8 0 10 -4032 -1 -1 6600 1;
#X obj 148 174 hsl 128 15 0 1 0 0 \$1-strikelev-ele-s \$1-strikelev-ele-r
Strike_Level -2 -8 0 10 -4032 -1 -1 9100 1;
#X obj 147 242 hsl 128 15 0 1 0 0 \$1-striketim-ele-s \$1-striketim-ele-r
Strike_timbre -2 -8 0 10 -4032 -1 -1 7500 1;
#X obj 290 174 hsl 128 15 0 1 0 0 \$1-damping-ele-s \$1-damping-ele-r
damping -2 -8 0 10 -199819 -1 -1 10900 1;
#X obj 290 207 hsl 128 15 0 1 0 0 \$1-position-ele-s \$1-position-ele-r
position -2 -8 0 10 -212955 -1 -1 2900 1;
#X obj 290 242 hsl 128 15 0 1 0 0 \$1-space-ele-s \$1-space-ele-r space
-2 -8 0 10 -196588 -1 -1 8900 1;
#X obj 180 837 outlet~;
#X obj 271 853 outlet~;
#N canvas 629 1190 1054 725 statesave 0;
#X obj 187 25 loadbang;
#X obj 344 443 textfile;
#X msg 626 426 rewind;
#X msg 583 426 bang;
#X obj 92 687 textfile;
#X obj 583 387 t b b;
#X obj 93 353 f;
#X obj 106 576 f;
#X obj 34 397 t b b b;
#X msg 169 576 clear;
#X obj 254 143 outlet;
#X text 296 147 INSTANCE NUMBER;
#X obj 215 79 f \$1;
#X obj 215 115 t f f f;
#X obj 188 58 t b b;
#X obj 34 374 bng 15 250 50 0 empty empty empty 17 7 0 10 -262144 -1
-1;
#X obj 34 230 r SAVE-S;
#X msg 30 434 set \$1 \$2 \$3 \$4 \$5 \$6 \$7 \$8 \$9 \$10 \$11 \$12
;
#X obj 634 292 delay 50;
#X obj 145 388 pack f f f f f f f f f f f f f f f f f f f, f 55;
#X obj 367 465 unpack f f f f f f f f f f f f f f f f f f f, f 62
;
#X msg 345 419 read statesave/\$1-element-ss.txt;
#X msg 105 647 write statesave/\$1-element-ss.txt;
#X obj 117 211 r \$1-contour-ele-s;
#X obj 130 235 r \$1-bowlev-ele-s;
#X obj 145 259 r \$1-bowtimbre-ele-s;
#X obj 157 284 r \$1-blowlev-ele-s;
#X obj 176 309 r \$1-blowflow-ele-s;
#X obj 260 182 r \$1-blowtimb-ele-s;
#X obj 280 208 r \$1-modpitch-ele-s;
#X obj 304 233 r \$1-moddepth-ele-s;
#X obj 326 258 r \$1-seed-ele-s;
#X obj 347 283 r \$1-res-ele-s;
#X obj 372 333 r \$1-bright-ele-s;
#X obj 390 359 r \$1-strikelev-ele-s;
#X obj 488 275 r \$1-mallet-ele-s;
#X obj 534 317 r \$1-striketim-ele-s;
#X obj 534 343 r \$1-damping-ele-s;
#X obj 719 316 r \$1-position-ele-s;
#X obj 752 408 r \$1-space-ele-s;
#X obj 79 163 r \$1-pitch-ele-s;
#X obj 368 519 s \$1-pitch-ele-r;
#X obj 365 537 s \$1-contour-ele-r;
#X obj 367 555 s \$1-bowlev-ele-r;
#X obj 372 575 s \$1-bowtimbre-ele-r;
#X obj 381 599 s \$1-blowlev-ele-r;
#X obj 372 641 s \$1-blowtimb-ele-r;
#X obj 516 515 s \$1-modpitch-ele-r;
#X obj 534 540 s \$1-moddepth-ele-r;
#X obj 560 566 s \$1-seed-ele-r;
#X obj 582 591 s \$1-res-ele-r;
#X obj 361 307 r \$1-geo-ele-s;
#X obj 603 616 s \$1-geo-ele-r;
#X obj 617 640 s \$1-bright-ele-r;
#X obj 598 663 s \$1-strikelev-ele-r;
#X obj 712 536 s \$1-mallet-ele-r;
#X obj 748 584 s \$1-striketim-ele-r;
#X obj 753 648 s \$1-damping-ele-r;
#X obj 836 524 s \$1-position-ele-r;
#X obj 855 549 s \$1-space-ele-r;
#X obj 380 622 s \$1-blowflow-ele-r;
#X connect 0 0 14 0;
#X connect 1 0 20 0;
#X connect 2 0 1 0;
#X connect 3 0 1 0;
#X connect 5 0 3 0;
#X connect 5 1 2 0;
#X connect 6 0 19 0;
#X connect 7 0 22 0;
#X connect 8 0 7 0;
#X connect 8 1 6 0;
#X connect 8 2 9 0;
#X connect 9 0 4 0;
#X connect 12 0 13 0;
#X connect 13 0 7 1;
#X connect 13 1 21 0;
#X connect 13 2 10 0;
#X connect 14 0 18 0;
#X connect 14 1 12 0;
#X connect 15 0 8 0;
#X connect 16 0 15 0;
#X connect 17 0 4 0;
#X connect 18 0 5 0;
#X connect 19 0 17 0;
#X connect 20 0 41 0;
#X connect 20 1 42 0;
#X connect 20 2 43 0;
#X connect 20 3 44 0;
#X connect 20 4 45 0;
#X connect 20 5 46 0;
#X connect 20 6 47 0;
#X connect 20 7 48 0;
#X connect 20 8 49 0;
#X connect 20 9 50 0;
#X connect 20 10 52 0;
#X connect 20 11 53 0;
#X connect 20 12 54 0;
#X connect 20 13 55 0;
#X connect 20 14 56 0;
#X connect 20 15 57 0;
#X connect 20 16 58 0;
#X connect 20 17 59 0;
#X connect 20 18 60 0;
#X connect 21 0 1 0;
#X connect 22 0 4 0;
#X connect 23 0 19 1;
#X connect 24 0 19 2;
#X connect 25 0 19 3;
#X connect 26 0 19 4;
#X connect 27 0 19 5;
#X connect 28 0 19 6;
#X connect 29 0 19 7;
#X connect 30 0 19 8;
#X connect 31 0 19 9;
#X connect 32 0 19 10;
#X connect 33 0 19 12;
#X connect 34 0 19 13;
#X connect 35 0 19 14;
#X connect 36 0 19 15;
#X connect 37 0 19 16;
#X connect 38 0 19 17;
#X connect 39 0 19 18;
#X connect 40 0 6 1;
#X connect 51 0 19 11;
#X restore 523 27 pd statesave;
#X obj 53 506 r \$1-pitch-ele-s;
#X obj 69 540 clip -1 1;
#X obj 56 472 inlet;
#X obj 99 681 r \$1-contour-ele-s;
#X obj 71 728 clip 0 1;
#X obj 142 736 inlet;
#X obj 712 195 r \$1-bowlev-ele-s;
#X obj 680 229 clip 0 1;
#X obj 882 235 r \$1-bowtimbre-ele-s;
#X obj 823 283 clip 0 1;
#X obj 815 241 inlet;
#X obj 606 128 r \$1-blowlev-ele-s;
#X obj 603 166 clip 0 1;
#X obj 929 61 r \$1-blowflow-ele-s;
#X obj 924 123 clip 0 1;
#X obj 677 18 r \$1-blowflow-ele-s;
#X obj 691 52 clip 0 1;
#X obj 981 343 r \$1-blowtimb-ele-s;
#X obj 954 395 clip 0 1;
#X obj 1074 399 inlet;
#X obj 702 730 r \$1-res-ele-s;
#X obj 666 781 clip 0 3;
#X obj 819 771 inlet;
#X obj 938 715 r \$1-geo-ele-s;
#X obj 905 762 clip 0 1;
#X obj 1015 764 inlet;
#X obj 927 596 r \$1-bright-ele-s;
#X obj 929 621 clip 0 1;
#X obj 1036 256 r \$1-strikelev-ele-s;
#X obj 1001 286 clip 0 1;
#X obj 786 607 r \$1-mallet-ele-s;
#X obj 826 640 clip 0 1;
#X obj 496 770 r \$1-striketim-ele-s;
#X obj 504 807 clip 0 1;
#X obj 598 807 inlet;
#X obj 1061 826 r \$1-damping-ele-s;
#X obj 1047 881 clip 0 1;
#X obj 1112 858 inlet;
#X obj 1241 720 r \$1-position-ele-s;
#X obj 1275 765 clip 0 1;
#X obj 1269 431 r \$1-space-ele-s;
#X obj 1245 496 clip 0 1;
#X obj 1326 489 inlet;
#X obj 1287 77 r \$1-modpitch-ele-s;
#X obj 1301 102 clip 0 1;
#X obj 1326 289 r \$1-moddepth-ele-s;
#X obj 1356 311 clip 0 1;
#X obj 1360 528 r \$1-seed-ele-s;
#X obj 1373 595 clip 0 32768;
#X obj 813 127 adc~;
#X msg 810 82 set \$1;
#X obj 2 36 nbx 2 22 -1e+37 1e+37 0 0 empty empty empty 0 -8 1 14 -262144
-1 -1 11 256;
#X text 2 62 Input CH;
#X connect 0 0 33 0;
#X connect 1 0 10 0;
#X connect 2 0 7 0;
#X connect 3 0 11 0;
#X connect 4 0 12 0;
#X connect 5 0 8 0;
#X connect 6 0 9 0;
#X connect 7 0 9 0;
#X connect 8 0 9 0;
#X connect 9 0 46 0;
#X connect 9 1 47 0;
#X connect 10 0 9 0;
#X connect 11 0 9 0;
#X connect 12 0 9 0;
#X connect 13 0 15 0;
#X connect 14 0 18 0;
#X connect 15 0 9 0;
#X connect 16 0 17 0;
#X connect 17 0 9 0;
#X connect 18 0 9 0;
#X connect 19 0 9 0;
#X connect 20 0 9 0;
#X connect 21 0 9 0;
#X connect 22 0 9 0;
#X connect 23 0 9 0;
#X connect 24 0 9 0;
#X connect 25 0 9 0;
#X connect 26 0 28 0;
#X connect 27 0 9 0;
#X connect 28 0 9 0;
#X connect 29 0 30 0;
#X connect 30 0 9 0;
#X connect 31 0 32 0;
#X connect 32 0 9 0;
#X connect 33 0 9 0;
#X connect 34 0 35 0;
#X connect 35 0 9 0;
#X connect 37 0 22 0;
#X connect 38 0 23 0;
#X connect 39 0 24 0;
#X connect 40 0 20 0;
#X connect 41 0 19 0;
#X connect 42 0 21 0;
#X connect 43 0 25 0;
#X connect 44 0 6 0;
#X connect 45 0 27 0;
#X connect 49 0 50 0;
#X connect 50 0 7 0;
#X connect 51 0 50 0;
#X connect 52 0 53 0;
#X connect 53 0 10 0;
#X connect 54 0 53 0;
#X connect 55 0 56 0;
#X connect 56 0 11 0;
#X connect 57 0 58 0;
#X connect 58 0 12 0;
#X connect 59 0 58 0;
#X connect 60 0 61 0;
#X connect 61 0 15 0;
#X connect 62 0 63 0;
#X connect 63 0 18 0;
#X connect 64 0 65 0;
#X connect 65 0 18 0;
#X connect 66 0 67 0;
#X connect 67 0 17 0;
#X connect 68 0 67 0;
#X connect 69 0 70 0;
#X connect 70 0 22 0;
#X connect 71 0 70 0;
#X connect 72 0 73 0;
#X connect 73 0 23 0;
#X connect 74 0 73 0;
#X connect 75 0 76 0;
#X connect 76 0 24 0;
#X connect 77 0 78 0;
#X connect 78 0 19 0;
#X connect 79 0 80 0;
#X connect 80 0 20 0;
#X connect 81 0 82 0;
#X connect 82 0 21 0;
#X connect 83 0 82 0;
#X connect 84 0 85 0;
#X connect 85 0 25 0;
#X connect 86 0 85 0;
#X connect 87 0 88 0;
#X connect 88 0 6 0;
#X connect 89 0 90 0;
#X connect 90 0 27 0;
#X connect 91 0 90 0;
#X connect 92 0 93 0;
#X connect 93 0 28 0;
#X connect 94 0 95 0;
#X connect 95 0 30 0;
#X connect 96 0 97 0;
#X connect 97 0 35 0;
#X connect 98 0 9 0;
#X connect 99 0 98 0;
#X connect 100 0 99 0;
#X coords 0 -1 1 1 500 263 2 0 0;
