#N canvas 38 1151 1770 943 12;
#X declare -lib cyclone;
#X declare -lib iemlib;
#X floatatom 1071 438 5 0 0 0 - - -;
#X obj 306 510 f;
#X obj 338 388 expr 60000 / $f1;
#X obj 338 409 / 4;
#X obj 306 482 metro;
#X obj 643 1123 outlet;
#X obj 531 972 f;
#X obj 501 972 f;
#X obj 560 972 f;
#X obj 617 972 f;
#X obj 589 972 f;
#X obj 646 972 f;
#X obj 677 972 f;
#X obj 706 972 f;
#X obj 608 1062 f;
#X obj 306 531 mod;
#X floatatom 360 702 5 0 0 0 - - -;
#X obj 360 647 match 0, f 8;
#X obj 411 675 prepend set;
#X obj 361 673 t b;
#X floatatom 502 706 5 0 0 0 - - -;
#X obj 552 673 prepend set;
#X obj 502 671 t b;
#X obj 502 645 match 1, f 8;
#X floatatom 647 705 5 0 0 0 - - -;
#X obj 697 672 prepend set;
#X obj 647 670 t b;
#X floatatom 788 703 5 0 0 0 - - -;
#X obj 838 670 prepend set;
#X obj 788 668 t b;
#X floatatom 935 701 5 0 0 0 - - -;
#X obj 985 668 prepend set;
#X obj 935 666 t b;
#X floatatom 1076 699 5 0 0 0 - - -;
#X obj 1126 666 prepend set;
#X obj 1076 664 t b;
#X floatatom 1221 698 5 0 0 0 - - -;
#X obj 1271 665 prepend set;
#X obj 1221 663 t b;
#X floatatom 1362 696 5 0 0 0 - - -;
#X obj 1412 663 prepend set;
#X obj 1362 661 t b;
#X obj 646 644 match 2, f 8;
#X obj 788 642 match 3, f 8;
#X obj 935 641 match 4, f 8;
#X obj 1076 638 match 5, f 8;
#X obj 1220 637 match 6, f 8;
#X obj 1362 635 match 7, f 8;
#X floatatom 354 871 5 0 0 0 - - -;
#X obj 404 838 prepend set;
#X obj 354 836 t b;
#X floatatom 495 869 5 0 0 0 - - -;
#X obj 545 836 prepend set;
#X obj 495 834 t b;
#X floatatom 640 868 5 0 0 0 - - -;
#X obj 690 835 prepend set;
#X obj 640 833 t b;
#X floatatom 781 866 5 0 0 0 - - -;
#X obj 831 833 prepend set;
#X obj 781 831 t b;
#X floatatom 928 864 5 0 0 0 - - -;
#X obj 978 831 prepend set;
#X obj 928 829 t b;
#X floatatom 1069 862 5 0 0 0 - - -;
#X obj 1119 829 prepend set;
#X obj 1069 827 t b;
#X floatatom 1214 861 5 0 0 0 - - -;
#X obj 1264 828 prepend set;
#X obj 1214 826 t b;
#X floatatom 1355 859 5 0 0 0 - - -;
#X obj 1405 826 prepend set;
#X obj 1355 824 t b;
#X obj 353 810 match 8, f 8;
#X obj 495 807 match 9, f 8;
#X obj 639 807 match 10;
#X obj 781 805 match 11;
#X obj 928 804 match 12;
#X obj 1069 801 match 13;
#X obj 1213 800 match 14;
#X obj 1355 798 match 15;
#X obj 768 972 f;
#X obj 738 972 f;
#X obj 797 972 f;
#X obj 854 972 f;
#X obj 824 972 f;
#X obj 883 972 f;
#X obj 914 972 f;
#X obj 943 972 f;
#X obj 361 733 match 1;
#X obj 361 759 bang;
#X obj 502 732 match 1;
#X obj 502 758 bang;
#X obj 647 732 match 1;
#X obj 647 758 bang;
#X obj 788 731 match 1;
#X obj 788 757 bang;
#X obj 935 729 match 1;
#X obj 935 755 bang;
#X obj 1076 728 match 1;
#X obj 1076 754 bang;
#X obj 1221 728 match 1;
#X obj 1221 754 bang;
#X obj 1362 727 match 1;
#X obj 1362 753 bang;
#X obj 353 895 match 1;
#X obj 353 921 bang;
#X obj 494 894 match 1;
#X obj 494 920 bang;
#X obj 639 894 match 1;
#X obj 639 920 bang;
#X obj 748 883 match 1;
#X obj 780 919 bang;
#X obj 927 891 match 1;
#X obj 928 920 bang;
#X obj 1068 890 match 1;
#X obj 1068 916 bang;
#X obj 1213 890 match 1;
#X obj 1213 916 bang;
#X obj 1354 889 match 1;
#X obj 1354 915 bang;
#X obj 1424 420 declare -lib cyclone;
#X obj 504 368 clip 0 32;
#X floatatom 1536 694 5 0 0 0 - - -;
#X obj 1586 661 prepend set;
#X obj 1536 659 t b;
#X floatatom 1677 692 5 0 0 0 - - -;
#X obj 1727 659 prepend set;
#X obj 1677 657 t b;
#X floatatom 1822 691 5 0 0 0 - - -;
#X obj 1872 658 prepend set;
#X obj 1822 656 t b;
#X floatatom 1963 689 5 0 0 0 - - -;
#X obj 2013 656 prepend set;
#X obj 1963 654 t b;
#X floatatom 2110 687 5 0 0 0 - - -;
#X obj 2160 654 prepend set;
#X obj 2110 652 t b;
#X floatatom 2251 685 5 0 0 0 - - -;
#X obj 2301 652 prepend set;
#X obj 2251 650 t b;
#X floatatom 2396 684 5 0 0 0 - - -;
#X obj 2446 651 prepend set;
#X obj 2396 649 t b;
#X floatatom 2537 682 5 0 0 0 - - -;
#X obj 2587 649 prepend set;
#X obj 2537 647 t b;
#X floatatom 1529 857 5 0 0 0 - - -;
#X obj 1579 824 prepend set;
#X obj 1529 822 t b;
#X floatatom 1670 855 5 0 0 0 - - -;
#X obj 1720 822 prepend set;
#X obj 1670 820 t b;
#X floatatom 1815 854 5 0 0 0 - - -;
#X obj 1865 821 prepend set;
#X obj 1815 819 t b;
#X floatatom 1956 852 5 0 0 0 - - -;
#X obj 2006 819 prepend set;
#X obj 1956 817 t b;
#X floatatom 2103 850 5 0 0 0 - - -;
#X obj 2153 817 prepend set;
#X obj 2103 815 t b;
#X floatatom 2244 848 5 0 0 0 - - -;
#X obj 2294 815 prepend set;
#X obj 2244 813 t b;
#X floatatom 2389 847 5 0 0 0 - - -;
#X obj 2439 814 prepend set;
#X obj 2389 812 t b;
#X floatatom 2530 845 5 0 0 0 - - -;
#X obj 2580 812 prepend set;
#X obj 2530 810 t b;
#X obj 1536 719 match 1;
#X obj 1536 745 bang;
#X obj 1677 718 match 1;
#X obj 1677 744 bang;
#X obj 1822 718 match 1;
#X obj 1822 751 bang;
#X obj 1963 717 match 1;
#X obj 1963 743 bang;
#X obj 2110 715 match 1;
#X obj 2110 741 bang;
#X obj 2251 714 match 1;
#X obj 2251 740 bang;
#X obj 2396 714 match 1;
#X obj 2396 740 bang;
#X obj 2537 713 match 1;
#X obj 2537 739 bang;
#X obj 1528 881 match 1;
#X obj 1528 907 bang;
#X obj 1669 880 match 1;
#X obj 1669 906 bang;
#X obj 1814 880 match 1;
#X obj 1814 906 bang;
#X obj 1955 879 match 1;
#X obj 1955 905 bang;
#X obj 2102 877 match 1;
#X obj 2103 906 bang;
#X obj 2243 876 match 1;
#X obj 2243 902 bang;
#X obj 2388 876 match 1;
#X obj 2388 902 bang;
#X obj 2529 875 match 1;
#X obj 2529 901 bang;
#X obj 1535 633 match 16;
#X obj 1677 631 match 17;
#X obj 1821 630 match 18;
#X obj 1963 628 match 19;
#X obj 2110 627 match 20;
#X obj 2251 624 match 21;
#X obj 2395 623 match 22;
#X obj 2537 621 match 23;
#X obj 1528 796 match 24;
#X obj 1670 793 match 25;
#X obj 1814 793 match 26;
#X obj 1956 791 match 27;
#X obj 2103 790 match 28;
#X obj 2244 787 match 29;
#X obj 2388 786 match 30;
#X obj 2530 784 match 31;
#X obj 1804 1000 f;
#X obj 1774 1000 f;
#X obj 1833 1000 f;
#X obj 1890 1000 f;
#X obj 1862 1000 f;
#X obj 1916 1002 f;
#X obj 1940 999 f;
#X obj 1972 998 f;
#X obj 2274 1006 f;
#X obj 2222 1005 f;
#X obj 2333 1007 f;
#X obj 2434 1008 f;
#X obj 2379 1007 f;
#X obj 2487 1005 f;
#X obj 2540 1005 f;
#X obj 2579 1005 f;
#X obj 1163 292 microtonal;
#X obj 1162 229 mtof;
#X obj 6 62 nbx 3 14 2 350 0 1 \$1-bpm-tempo global-tempo tempo 0 -8
0 10 -262144 -1 -1 20 256;
#X obj 4 24 tgl 15 0 \$1-start-tempo syncstart start 17 7 0 10 -262144
-1 -1 0 1;
#X floatatom 107 66 5 1 32 2 lenght_seq #1-lenght-seq-eucl-r #1-lenght-seq-eucl-s
;
#X obj 2688 1284 unpack 0 0 0 0 0 0 0 0 0 0 0 0 0 0 0 0 0 0 0 0 0 0
0 0 0 0 0 0 0 0 0 0, f 168;
#X floatatom 60 66 5 1 32 2 n_hits #1-nhits-eucl-r #1-nhits-eucl-s
;
#X floatatom 187 66 5 0 16 2 offset #1-offset-eucl-r #1-offset-eucl-s
;
#N canvas 393 195 1262 775 statesave 0;
#X obj 137 29 loadbang;
#X obj 483 805 textfile;
#X msg 765 788 rewind;
#X msg 722 788 bang;
#X obj 43 930 textfile;
#X obj 722 749 t b b;
#X obj 44 596 f;
#X obj 57 819 f;
#X obj -15 640 t b b b;
#X msg 120 819 clear;
#X obj 204 147 outlet;
#X text 246 151 INSTANCE NUMBER;
#X obj 165 83 f \$1;
#X obj 165 119 t f f f;
#X obj 138 62 t b b;
#X obj -15 617 bng 15 250 50 0 empty empty empty 17 7 0 10 -262144
-1 -1;
#X obj -16 234 r SAVE-S;
#X msg 484 781 read statesave/\$1-euclseq-ss.txt;
#X msg 56 890 write statesave/\$1-euclseq-ss.txt;
#X obj 859 719 r \$0-onoff-eucl-s;
#X obj 1222 800 s \$0-onoff-eucl-r;
#X obj 209 32 r create-bang;
#X obj 1285 895 s \$0-check1r;
#X obj 1298 921 s \$0-check2r;
#X obj 1309 951 s \$0-check3r;
#X obj 1321 978 s \$0-check4r;
#X obj 1335 1007 s \$0-check5r;
#X obj 1352 1038 s \$0-check6r;
#X obj 1362 1069 s \$0-check7r;
#X obj 1383 1097 s \$0-check8r;
#X obj 1412 891 s \$0-check9r;
#X obj 1422 920 s \$0-check10r;
#X obj 1435 949 s \$0-check11r;
#X obj 1446 980 s \$0-check12r;
#X obj 1457 1013 s \$0-check13r;
#X obj 1478 1044 s \$0-check14r;
#X obj 1492 1069 s \$0-check15r;
#X obj 1516 1098 s \$0-check16r;
#X obj 1539 894 s \$0-check17r;
#X obj 1552 919 s \$0-check18r;
#X obj 1566 948 s \$0-check19r;
#X obj 1582 975 s \$0-check20r;
#X obj 1594 1006 s \$0-check21r;
#X obj 1606 1034 s \$0-check22r;
#X obj 1622 1065 s \$0-check23r;
#X obj 1650 1091 s \$0-check24r;
#X obj 1718 910 s \$0-check25r;
#X obj 1731 938 s \$0-check26r;
#X obj 1742 966 s \$0-check27r, f 14;
#X obj 1756 990 s \$0-check28r;
#X obj 1766 1017 s \$0-check29r;
#X obj 1780 1047 s \$0-check30r;
#X obj 1791 1079 s \$0-check31r;
#X obj 1806 1113 s \$0-check32r;
#X obj 1888 991 s \$0-spigotr;
#X obj 1573 600 r \$0-spigot;
#X obj 950 546 r \$0-check7;
#X obj 971 574 r \$0-check8;
#X obj 1037 369 r \$0-check9;
#X obj 1047 398 r \$0-check10;
#X obj 1060 427 r \$0-check11;
#X obj 1071 458 r \$0-check12;
#X obj 1078 487 r \$0-check13;
#X obj 1099 520 r \$0-check14;
#X obj 1117 547 r \$0-check15;
#X obj 1141 576 r \$0-check16;
#X obj 1231 365 r \$0-check17;
#X obj 1244 390 r \$0-check18;
#X obj 1258 419 r \$0-check19;
#X obj 1274 446 r \$0-check20;
#X obj 1286 477 r \$0-check21;
#X obj 1298 505 r \$0-check22;
#X obj 1314 536 r \$0-check23;
#X obj 1342 562 r \$0-check24;
#X obj 1452 368 r \$0-check25;
#X obj 1465 396 r \$0-check26;
#X obj 1476 424 r \$0-check27, f 14;
#X obj 1490 448 r \$0-check28;
#X obj 1500 475 r \$0-check29;
#X obj 1514 505 r \$0-check30;
#X obj 1525 537 r \$0-check31;
#X obj 1540 571 r \$0-check32;
#X obj 692 682 delay 500;
#X obj -5 97 r \$1-eucl-back;
#X obj 1710 586 r syncstart;
#X obj 1714 608 r global-tempo;
#X msg 44 677 set \$1 \$2 \$3 \$4 \$5 \$6 \$7 \$8 \$9 \$10 \$11 \$12
\$13 \$14 \$15 \$16 \$17 \$18 \$19 \$20 \$21 \$22 \$23 \$24 \$25 \$26
\$27 \$28 \$29 \$30 \$31 \$32 \$33 \$34 \$35 \$36 \$37 \$38 \$39 \$40
\$41 \$42 \$43 \$44 \$45 \$46 \$47 \$48 \$49 \$50 \$51 \$52 \$53 \$54
\$55 \$56 \$57 \$58 \$59 \$60 \$61 \$62 \$63 \$64 \$65 \$66 \$67 \$68
\$69 \$70 \$71 \$72 \$73 \$74 \$75;
#X obj 1932 940 s syncstart-r;
#X obj 1941 969 s global-tempo-r;
#X obj 1917 901 prepend set;
#X obj 1988 919 prepend set;
#X obj 67 631 pack f f f f f f f f f f f f f f f f f f f f f f f f
f f f f f f f f f f f f f f f f f f f f f f f f f f f f f f f f f f
f f f f f f f f f f f f f f f f f f, f 216;
#X obj 1718 658 r \$0-spigotm;
#X obj 453 850 unpack f f f f f f f f f f f f f f f f f f f f f f f
f f f f f f f f f f f f f f f f f f f f f f f f f f f f f f f f f f
f f f f f f f f f f f f f f f f f f f, f 216;
#X obj 1927 1054 s \$0-spigotmr;
#X obj 196 392 r \$1-1-note-eucl-s;
#X obj 208 421 r \$1-2-note-eucl-s;
#X obj 221 449 r \$1-3-note-eucl-s;
#X obj 233 476 r \$1-4-note-eucl-s;
#X obj 247 505 r \$1-5-note-eucl-s;
#X obj 265 535 r \$1-6-note-eucl-s;
#X obj 274 567 r \$1-7-note-eucl-s;
#X obj 296 594 r \$1-8-note-eucl-s;
#X obj 359 391 r \$1-9-note-eucl-s;
#X obj 368 420 r \$1-10-note-eucl-s;
#X obj 382 449 r \$1-11-note-eucl-s;
#X obj 393 480 r \$1-12-note-eucl-s;
#X obj 404 513 r \$1-13-note-eucl-s;
#X obj 425 544 r \$1-14-note-eucl-s;
#X obj 438 568 r \$1-15-note-eucl-s;
#X obj 450 595 r \$1-16-note-eucl-s;
#X obj 535 386 r \$1-17-note-eucl-s;
#X obj 547 410 r \$1-18-note-eucl-s;
#X obj 561 439 r \$1-19-note-eucl-s;
#X obj 577 466 r \$1-20-note-eucl-s;
#X obj 588 496 r \$1-21-note-eucl-s;
#X obj 601 525 r \$1-22-note-eucl-s;
#X obj 613 562 r \$1-23-note-eucl-s;
#X obj 632 596 r \$1-24-note-eucl-s;
#X obj 704 383 r \$1-25-note-eucl-s;
#X obj 718 411 r \$1-26-note-eucl-s;
#X obj 729 438 r \$1-27-note-eucl-s;
#X obj 739 464 r \$1-28-note-eucl-s;
#X obj 753 490 r \$1-29-note-eucl-s;
#X obj 767 520 r \$1-30-note-eucl-s;
#X obj 777 552 r \$1-31-note-eucl-s;
#X obj 794 584 r \$1-32-note-eucl-s;
#X obj 872 369 r \$1-check1;
#X obj 886 398 r \$1-check2;
#X obj 897 428 r \$1-check3;
#X obj 909 455 r \$1-check4;
#X obj 923 484 r \$1-check5;
#X obj 940 515 r \$1-check6;
#X obj 55 212 r \$1-tonic.micro-eucl-s;
#X obj 69 237 r \$1-root-micro-eucl-s;
#X obj 83 261 r \$1-radicando-micro-eucl-s;
#X obj 96 283 r \$1-factor-micro-eucl-s;
#X obj 115 308 r \$1-lenght-seq-eucl-s;
#X obj 129 338 r \$1-nhits-eucl-s;
#X obj 146 364 r \$1-offset-eucl-s;
#X obj 335 888 s \$1-tonic.micro-eucl-r;
#X obj 350 913 s \$1-root-micro-eucl-r;
#X obj 363 937 s \$1-radicando-micro-eucl-r;
#X obj 376 959 s \$1-factor-micro-eucl-r;
#X obj 392 985 s \$1-lenght-seq-eucl-r;
#X obj 415 1017 s \$1-nhits-eucl-r;
#X obj 431 1044 s \$1-offset-eucl-r;
#X obj 614 902 s \$1-1-note-eucl-r;
#X obj 627 928 s \$1-2-note-eucl-r;
#X obj 639 957 s \$1-3-note-eucl-r;
#X obj 651 984 s \$1-4-note-eucl-r;
#X obj 665 1013 s \$1-5-note-eucl-r;
#X obj 683 1043 s \$1-6-note-eucl-r;
#X obj 692 1075 s \$1-7-note-eucl-r;
#X obj 713 1103 s \$1-8-note-eucl-r;
#X obj 762 902 s \$1-9-note-eucl-r;
#X obj 772 931 s \$1-10-note-eucl-r;
#X obj 785 960 s \$1-11-note-eucl-r;
#X obj 796 991 s \$1-12-note-eucl-r;
#X obj 807 1024 s \$1-13-note-eucl-r;
#X obj 828 1055 s \$1-14-note-eucl-r;
#X obj 841 1079 s \$1-15-note-eucl-r;
#X obj 853 1106 s \$1-16-note-eucl-r;
#X obj 930 902 s \$1-17-note-eucl-r;
#X obj 943 927 s \$1-18-note-eucl-r;
#X obj 957 956 s \$1-19-note-eucl-r;
#X obj 973 983 s \$1-20-note-eucl-r;
#X obj 985 1014 s \$1-21-note-eucl-r;
#X obj 997 1042 s \$1-22-note-eucl-r;
#X obj 1007 1079 s \$1-23-note-eucl-r;
#X obj 1027 1107 s \$1-24-note-eucl-r;
#X obj 1122 896 s \$1-25-note-eucl-r;
#X obj 1136 924 s \$1-26-note-eucl-r;
#X obj 1147 951 s \$1-27-note-eucl-r;
#X obj 1160 976 s \$1-28-note-eucl-r;
#X obj 1171 1003 s \$1-29-note-eucl-r;
#X obj 1184 1033 s \$1-30-note-eucl-r;
#X obj 1195 1065 s \$1-31-note-eucl-r;
#X obj 1211 1097 s \$1-32-note-eucl-r;
#X connect 0 0 14 0;
#X connect 1 0 93 0;
#X connect 2 0 1 0;
#X connect 3 0 1 0;
#X connect 5 0 3 0;
#X connect 5 1 2 0;
#X connect 6 0 91 0;
#X connect 7 0 18 0;
#X connect 8 0 7 0;
#X connect 8 1 6 0;
#X connect 8 2 9 0;
#X connect 9 0 4 0;
#X connect 12 0 13 0;
#X connect 13 0 7 1;
#X connect 13 1 17 0;
#X connect 13 2 10 0;
#X connect 14 0 82 0;
#X connect 14 1 12 0;
#X connect 15 0 8 0;
#X connect 16 0 15 0;
#X connect 17 0 1 0;
#X connect 18 0 4 0;
#X connect 19 0 91 39;
#X connect 21 0 14 0;
#X connect 55 0 91 72;
#X connect 56 0 91 46;
#X connect 57 0 91 47;
#X connect 58 0 91 48;
#X connect 59 0 91 49;
#X connect 60 0 91 50;
#X connect 61 0 91 51;
#X connect 62 0 91 52;
#X connect 63 0 91 53;
#X connect 64 0 91 54;
#X connect 65 0 91 55;
#X connect 66 0 91 56;
#X connect 67 0 91 57;
#X connect 68 0 91 58;
#X connect 69 0 91 59;
#X connect 70 0 91 60;
#X connect 71 0 91 61;
#X connect 72 0 91 62;
#X connect 73 0 91 63;
#X connect 74 0 91 64;
#X connect 75 0 91 65;
#X connect 76 0 91 66;
#X connect 77 0 91 67;
#X connect 78 0 91 68;
#X connect 79 0 91 69;
#X connect 80 0 91 70;
#X connect 81 0 91 71;
#X connect 82 0 5 0;
#X connect 83 0 15 0;
#X connect 84 0 91 73;
#X connect 85 0 91 74;
#X connect 86 0 4 0;
#X connect 89 0 87 0;
#X connect 90 0 88 0;
#X connect 91 0 86 0;
#X connect 92 0 91 75;
#X connect 93 0 140 0;
#X connect 93 1 141 0;
#X connect 93 2 142 0;
#X connect 93 3 143 0;
#X connect 93 4 144 0;
#X connect 93 5 145 0;
#X connect 93 6 146 0;
#X connect 93 7 147 0;
#X connect 93 8 148 0;
#X connect 93 9 149 0;
#X connect 93 10 150 0;
#X connect 93 11 151 0;
#X connect 93 12 152 0;
#X connect 93 13 153 0;
#X connect 93 14 154 0;
#X connect 93 15 155 0;
#X connect 93 16 156 0;
#X connect 93 17 157 0;
#X connect 93 18 158 0;
#X connect 93 19 159 0;
#X connect 93 20 160 0;
#X connect 93 21 161 0;
#X connect 93 22 162 0;
#X connect 93 23 163 0;
#X connect 93 24 164 0;
#X connect 93 25 165 0;
#X connect 93 26 166 0;
#X connect 93 27 167 0;
#X connect 93 28 168 0;
#X connect 93 29 169 0;
#X connect 93 30 170 0;
#X connect 93 31 171 0;
#X connect 93 32 172 0;
#X connect 93 33 173 0;
#X connect 93 34 174 0;
#X connect 93 35 175 0;
#X connect 93 36 176 0;
#X connect 93 37 177 0;
#X connect 93 38 178 0;
#X connect 93 39 20 0;
#X connect 93 40 22 0;
#X connect 93 41 23 0;
#X connect 93 42 24 0;
#X connect 93 43 25 0;
#X connect 93 44 26 0;
#X connect 93 45 27 0;
#X connect 93 46 28 0;
#X connect 93 47 29 0;
#X connect 93 48 30 0;
#X connect 93 49 31 0;
#X connect 93 50 32 0;
#X connect 93 51 33 0;
#X connect 93 52 34 0;
#X connect 93 53 35 0;
#X connect 93 54 36 0;
#X connect 93 55 37 0;
#X connect 93 56 38 0;
#X connect 93 57 39 0;
#X connect 93 58 40 0;
#X connect 93 59 41 0;
#X connect 93 60 42 0;
#X connect 93 61 43 0;
#X connect 93 62 44 0;
#X connect 93 63 45 0;
#X connect 93 64 46 0;
#X connect 93 65 47 0;
#X connect 93 66 48 0;
#X connect 93 67 49 0;
#X connect 93 68 50 0;
#X connect 93 69 51 0;
#X connect 93 70 52 0;
#X connect 93 71 53 0;
#X connect 93 72 54 0;
#X connect 93 73 89 0;
#X connect 93 74 90 0;
#X connect 93 75 94 0;
#X connect 95 0 91 7;
#X connect 96 0 91 8;
#X connect 97 0 91 9;
#X connect 98 0 91 10;
#X connect 99 0 91 11;
#X connect 100 0 91 12;
#X connect 101 0 91 13;
#X connect 102 0 91 14;
#X connect 103 0 91 15;
#X connect 104 0 91 16;
#X connect 105 0 91 17;
#X connect 106 0 91 18;
#X connect 107 0 91 19;
#X connect 108 0 91 20;
#X connect 109 0 91 21;
#X connect 110 0 91 22;
#X connect 111 0 91 23;
#X connect 112 0 91 24;
#X connect 113 0 91 25;
#X connect 114 0 91 26;
#X connect 115 0 91 27;
#X connect 116 0 91 28;
#X connect 117 0 91 29;
#X connect 118 0 91 30;
#X connect 119 0 91 31;
#X connect 120 0 91 32;
#X connect 121 0 91 33;
#X connect 122 0 91 34;
#X connect 123 0 91 35;
#X connect 124 0 91 36;
#X connect 125 0 91 37;
#X connect 126 0 91 38;
#X connect 127 0 91 40;
#X connect 128 0 91 41;
#X connect 129 0 91 42;
#X connect 130 0 91 43;
#X connect 131 0 91 44;
#X connect 132 0 91 45;
#X connect 133 0 6 1;
#X connect 134 0 91 1;
#X connect 135 0 91 2;
#X connect 136 0 91 3;
#X connect 137 0 91 4;
#X connect 138 0 91 5;
#X connect 139 0 91 6;
#X restore 1435 124 pd statesave;
#X obj 429 598 r \$0-check1;
#X obj 564 610 r \$0-check2;
#X obj 445 470 euclid, f 9;
#X obj 528 513 s \$0-euclid;
#X obj 435 576 r \$0-euclid;
#X obj 564 585 r \$0-euclid;
#X obj 713 580 r \$0-euclid;
#X obj 712 604 r \$0-check3;
#X obj 846 587 r \$0-euclid;
#X obj 845 611 r \$0-check4;
#X obj 1010 580 r \$0-euclid;
#X obj 1139 589 r \$0-euclid;
#X obj 1288 584 r \$0-euclid;
#X obj 1421 585 r \$0-euclid;
#X obj 1004 602 r \$0-check5;
#X obj 1139 614 r \$0-check6;
#X obj 1287 608 r \$0-check7;
#X obj 1420 609 r \$0-check8;
#X obj 1605 576 r \$0-euclid;
#X obj 1733 586 r \$0-euclid;
#X obj 1883 580 r \$0-euclid;
#X obj 2016 587 r \$0-euclid;
#X obj 2180 580 r \$0-euclid;
#X obj 2309 589 r \$0-euclid;
#X obj 2458 584 r \$0-euclid;
#X obj 2591 585 r \$0-euclid;
#X obj 418 770 r \$0-euclid;
#X obj 547 779 r \$0-euclid;
#X obj 696 774 r \$0-euclid;
#X obj 829 781 r \$0-euclid;
#X obj 993 774 r \$0-euclid;
#X obj 1125 776 r \$0-euclid;
#X obj 1270 761 r \$0-euclid;
#X obj 1425 767 r \$0-euclid;
#X obj 1588 770 r \$0-euclid;
#X obj 1716 745 r \$0-euclid;
#X obj 1869 752 r \$0-euclid;
#X obj 2013 753 r \$0-euclid;
#X obj 2152 756 r \$0-euclid;
#X obj 2305 753 r \$0-euclid;
#X obj 2442 742 r \$0-euclid;
#X obj 2609 752 r \$0-euclid;
#X obj 1582 792 r \$0-check25;
#X obj 412 792 r \$0-check9;
#X obj 547 804 r \$0-check10;
#X obj 695 798 r \$0-check11;
#X obj 828 806 r \$0-check12;
#X obj 987 796 r \$0-check13;
#X obj 1125 801 r \$0-check14;
#X obj 1269 785 r \$0-check15;
#X obj 1424 791 r \$0-check16;
#X obj 1599 598 r \$0-check17;
#X obj 1733 611 r \$0-check18;
#X obj 1882 604 r \$0-check19;
#X obj 2015 611 r \$0-check20;
#X obj 2174 602 r \$0-check21;
#X obj 2310 616 r \$0-check22;
#X obj 2458 607 r \$0-check23;
#X obj 2590 609 r \$0-check24;
#X obj 1716 770 r \$0-check26;
#X obj 1868 776 r \$0-check27;
#X obj 2012 777 r \$0-check28;
#X obj 2145 778 r \$0-check29;
#X obj 2306 780 r \$0-check30;
#X obj 2441 766 r \$0-check31;
#X obj 2608 776 r \$0-check32;
#X obj 1923 281 f \$0;
#X obj 1919 184 loadbang;
#X obj 1926 388 iem_s;
#X obj 1922 244 delay 5;
#X obj 1975 282 f \$1;
#X obj 2009 220 bang;
#X obj 2017 185 r create-bang;
#X obj 1999 245 t a a;
#X msg 1976 350 set \$1-eucl-instance;
#X obj 407 711 s \$0-check1r;
#X obj 547 707 s \$0-check2r;
#X obj 690 706 s \$0-check3r;
#X obj 832 704 s \$0-check4r;
#X obj 977 702 s \$0-check5r;
#X obj 1122 702 s \$0-check6r;
#X obj 1266 699 s \$0-check7r;
#X obj 1414 699 s \$0-check8r;
#X obj 396 870 s \$0-check9r;
#X obj 540 869 s \$0-check10r;
#X obj 679 868 s \$0-check11r;
#X obj 824 864 s \$0-check12r;
#X obj 968 866 s \$0-check13r;
#X obj 1106 859 s \$0-check14r;
#X obj 1255 861 s \$0-check15r;
#X obj 1400 856 s \$0-check16r;
#X obj 1578 694 s \$0-check17r;
#X obj 1721 693 s \$0-check18r;
#X obj 1862 690 s \$0-check19r;
#X obj 2005 688 s \$0-check20r;
#X obj 2150 686 s \$0-check21r;
#X obj 2291 683 s \$0-check22r;
#X obj 2437 683 s \$0-check23r;
#X obj 2582 681 s \$0-check24r;
#X obj 1571 856 s \$0-check25r;
#X obj 1716 853 s \$0-check26r;
#X obj 1854 853 s \$0-check27r, f 14;
#X obj 2002 852 s \$0-check28r;
#X obj 2146 849 s \$0-check29r;
#X obj 2286 850 s \$0-check30r;
#X obj 2433 845 s \$0-check31r;
#X obj 2578 848 s \$0-check32r;
#X obj 1134 436 s \$0-counter;
#X floatatom 1915 330 5 0 0 0 - - -;
#X msg 2127 398 0-eucl-instance;
#X obj 2132 253 bng 15 250 50 0 empty empty empty 17 7 0 10 -262144
-1 -1;
#X obj 1411 347 declare -lib iemlib;
#X floatatom 617 378 5 0 0 0 - - -;
#X obj 211 1184 r \$1-1-note-eucl-s;
#X obj 344 1183 r \$1-2-note-eucl-s;
#X obj 480 1182 r \$1-3-note-eucl-s;
#X obj 617 1181 r \$1-4-note-eucl-s;
#X obj 751 1181 r \$1-5-note-eucl-s;
#X obj 886 1181 r \$1-6-note-eucl-s;
#X obj 1021 1181 r \$1-7-note-eucl-s;
#X obj 1157 1181 r \$1-8-note-eucl-s;
#X obj 1181 1210 r \$1-16-note-eucl-s;
#X obj 1038 1212 r \$1-15-note-eucl-s;
#X obj 893 1212 r \$1-14-note-eucl-s;
#X obj 752 1213 r \$1-13-note-eucl-s;
#X obj 613 1214 r \$1-12-note-eucl-s;
#X obj 471 1214 r \$1-11-note-eucl-s;
#X obj 330 1215 r \$1-10-note-eucl-s;
#X obj 196 1215 r \$1-9-note-eucl-s;
#X obj 1515 1065 r \$1-17-note-eucl-s;
#X obj 1513 1100 r \$1-25-note-eucl-s;
#X obj 1660 1065 r \$1-18-note-eucl-s;
#X obj 1655 1102 r \$1-26-note-eucl-s;
#X obj 1804 1064 r \$1-19-note-eucl-s;
#X obj 1793 1101 r \$1-27-note-eucl-s;
#X obj 1934 1102 r \$1-28-note-eucl-s;
#X obj 1948 1064 r \$1-20-note-eucl-s;
#X obj 2091 1064 r \$1-21-note-eucl-s;
#X obj 2075 1103 r \$1-29-note-eucl-s;
#X obj 2231 1065 r \$1-22-note-eucl-s;
#X obj 2215 1104 r \$1-30-note-eucl-s;
#X obj 2356 1105 r \$1-31-note-eucl-s;
#X obj 2375 1066 r \$1-23-note-eucl-s;
#X obj 2515 1066 r \$1-24-note-eucl-s;
#X obj 2500 1103 r \$1-32-note-eucl-s;
#X obj 2053 1948 s \$1-1-note-eucl-r;
#X obj 2188 1946 s \$1-2-note-eucl-r;
#X obj 2322 1946 s \$1-3-note-eucl-r;
#X obj 2047 1983 s \$1-17-note-eucl-r;
#X obj 2192 1983 s \$1-18-note-eucl-r;
#X obj 2336 1982 s \$1-19-note-eucl-r;
#X obj 2459 1945 s \$1-4-note-eucl-r;
#X obj 2481 1982 s \$1-20-note-eucl-r;
#X obj 2593 1945 s \$1-5-note-eucl-r;
#X obj 2623 1982 s \$1-21-note-eucl-r;
#X obj 2729 1945 s \$1-6-note-eucl-r;
#X obj 2765 1983 s \$1-22-note-eucl-r;
#X obj 2863 1945 s \$1-7-note-eucl-r;
#X obj 2907 1984 s \$1-23-note-eucl-r;
#X obj 2999 1945 s \$1-8-note-eucl-r;
#X obj 3047 1984 s \$1-24-note-eucl-r;
#X obj 3134 1947 s \$1-9-note-eucl-r;
#X obj 3188 1983 s \$1-25-note-eucl-r;
#X obj 3267 1946 s \$1-10-note-eucl-r;
#X obj 3330 1985 s \$1-26-note-eucl-r;
#X obj 3408 1945 s \$1-11-note-eucl-r;
#X obj 3467 1985 s \$1-27-note-eucl-r;
#X obj 3549 1945 s \$1-12-note-eucl-r;
#X obj 3609 1985 s \$1-28-note-eucl-r;
#X obj 3689 1944 s \$1-13-note-eucl-r;
#X obj 3750 1986 s \$1-29-note-eucl-r;
#X obj 3830 1943 s \$1-14-note-eucl-r;
#X obj 3890 1987 s \$1-30-note-eucl-r;
#X obj 3974 1942 s \$1-15-note-eucl-r;
#X obj 4031 1988 s \$1-31-note-eucl-r;
#X obj 4175 1986 s \$1-32-note-eucl-r;
#X obj 4118 1941 s \$1-16-note-eucl-r;
#X obj 1766 1560 ftom;
#X obj 1835 1564 ftom;
#X obj 1913 1572 ftom;
#X obj 2011 1568 ftom;
#X obj 2091 1583 ftom;
#X obj 2194 1582 ftom;
#X obj 2296 1581 ftom;
#X obj 2378 1578 ftom;
#X obj 2467 1574 ftom;
#X obj 2569 1576 ftom;
#X obj 2682 1578 ftom;
#X obj 2765 1576 ftom;
#X obj 2866 1561 ftom;
#X obj 2962 1565 ftom;
#X obj 3130 1517 ftom;
#X obj 3168 1516 ftom;
#X obj 3279 1550 ftom;
#X obj 3430 1566 ftom;
#X obj 3510 1592 ftom;
#X obj 3603 1585 ftom;
#X obj 3680 1593 ftom;
#X obj 3764 1584 ftom;
#X obj 3865 1588 ftom;
#X obj 3975 1583 ftom;
#X obj 4063 1585 ftom;
#X obj 4189 1585 ftom;
#X obj 4241 1585 ftom;
#X obj 4300 1582 ftom;
#X obj 4396 1586 ftom;
#X obj 4490 1583 ftom;
#X obj 4555 1578 ftom;
#X obj 4630 1560 ftom;
#X obj 355 511 + 1;
#X obj 371 476 s temp;
#X floatatom 117 24 5 0 0 2 Radice #1-root-micro-eucl-r #1-root-micro-eucl-s
;
#X floatatom 58 25 5 0 127 2 Tonica #1-tonic.micro-eucl-r #1-tonic.micro-eucl-s
;
#X floatatom 185 25 5 0 16 2 Radicando #1-radicando-micro-eucl-r #1-radicando-micro-eucl-s
;
#X floatatom 254 31 5 0 0 2 - #1-1-note-eucl-r #1-1-note-eucl-s;
#X floatatom 296 31 5 0 0 0 - #1-2-note-eucl-r #1-2-note-eucl-s;
#X floatatom 344 31 5 0 0 0 - #1-3-note-eucl-r #1-3-note-eucl-s;
#X floatatom 388 31 5 0 0 0 - #1-4-note-eucl-r #1-4-note-eucl-s;
#X floatatom 432 31 5 0 0 0 - #1-5-note-eucl-r #1-5-note-eucl-s;
#X floatatom 477 31 5 0 0 0 - #1-6-note-eucl-r #1-6-note-eucl-s;
#X floatatom 520 31 5 0 0 0 - #1-7-note-eucl-r #1-7-note-eucl-s;
#X floatatom 567 31 5 0 0 0 - #1-8-note-eucl-r #1-8-note-eucl-s;
#X floatatom 610 31 5 0 0 2 - #1-9-note-eucl-r #1-9-note-eucl-s;
#X floatatom 652 31 5 0 0 0 - #1-10-note-eucl-r #1-10-note-eucl-s;
#X floatatom 700 31 5 0 0 0 - #1-11-note-eucl-r #1-11-note-eucl-s;
#X floatatom 744 31 5 0 0 0 - #1-12-note-eucl-r #1-12-note-eucl-s;
#X floatatom 788 31 5 0 0 0 - #1-13-note-eucl-r #1-13-note-eucl-s;
#X floatatom 833 31 5 0 0 0 - #1-14-note-eucl-r #1-14-note-eucl-s;
#X floatatom 876 31 5 0 0 0 - #1-15-note-eucl-r #1-15-note-eucl-s;
#X floatatom 923 31 5 0 0 0 - #1-16-note-eucl-r #1-16-note-eucl-s;
#X floatatom 253 82 5 0 0 2 - #1-17-note-eucl-r #1-17-note-eucl-s;
#X floatatom 295 82 5 0 0 0 - #1-18-note-eucl-r #1-18-note-eucl-s;
#X floatatom 343 82 5 0 0 0 - #1-19-note-eucl-r #1-19-note-eucl-s;
#X floatatom 387 82 5 0 0 0 - #1-20-note-eucl-r #1-20-note-eucl-s;
#X floatatom 431 82 5 0 0 0 - #1-21-note-eucl-r #1-21-note-eucl-s;
#X floatatom 476 82 5 0 0 0 - #1-22-note-eucl-r #1-22-note-eucl-s;
#X floatatom 519 82 5 0 0 0 - #1-23-note-eucl-r #1-23-note-eucl-s;
#X floatatom 566 82 5 0 0 0 - #1-24-note-eucl-r #1-24-note-eucl-s;
#X floatatom 609 82 5 0 0 2 - #1-25-note-eucl-r #1-25-note-eucl-s;
#X floatatom 651 82 5 0 0 0 - #1-26-note-eucl-r #1-26-note-eucl-s;
#X floatatom 699 82 5 0 0 0 - #1-27-note-eucl-r #1-27-note-eucl-s;
#X floatatom 743 82 5 0 0 0 - #1-28-note-eucl-r #1-28-note-eucl-s;
#X floatatom 787 82 5 0 0 0 - #1-29-note-eucl-r #1-29-note-eucl-s;
#X floatatom 832 82 5 0 0 0 - #1-30-note-eucl-r #1-30-note-eucl-s;
#X floatatom 875 82 5 0 0 0 - #1-31-note-eucl-r #1-31-note-eucl-s;
#X floatatom 922 82 5 0 0 0 - #1-32-note-eucl-r #1-32-note-eucl-s;
#X floatatom 2584 1291 5 0 0 0 - - -;
#X obj 257 11 hsl 700 15 0 15 0 0 empty \$0-counter empty -2 -8 0 10
-262144 -1 -1 0 1;
#X obj 256 60 hsl 700 15 16 31 0 0 empty \$0-counter empty -2 -8 0
10 -262144 -1 -1 0 1;
#X obj 1151 103 r \$1-tonic.micro-eucl-s;
#X obj 1189 139 r \$1-root-micro-eucl-s;
#X obj 1237 165 r \$1-radicando-micro-eucl-s;
#X obj 1320 199 r \$1-factor-micro-eucl-s;
#X obj 595 249 r \$1-offset-eucl-s;
#X obj 567 187 r \$1-nhits-eucl-s;
#X obj 501 326 r \$1-lenght-seq-eucl-s;
#X obj 331 362 r \$1-bpm-tempo;
#X obj 277 327 r \$1-start-tempo;
#X connect 0 0 17 0;
#X connect 0 0 23 0;
#X connect 0 0 42 0;
#X connect 0 0 43 0;
#X connect 0 0 44 0;
#X connect 0 0 45 0;
#X connect 0 0 46 0;
#X connect 0 0 47 0;
#X connect 0 0 72 0;
#X connect 0 0 73 0;
#X connect 0 0 74 0;
#X connect 0 0 75 0;
#X connect 0 0 76 0;
#X connect 0 0 77 0;
#X connect 0 0 78 0;
#X connect 0 0 79 0;
#X connect 0 0 202 0;
#X connect 0 0 217 0;
#X connect 0 0 216 0;
#X connect 0 0 215 0;
#X connect 0 0 214 0;
#X connect 0 0 213 0;
#X connect 0 0 212 0;
#X connect 0 0 211 0;
#X connect 0 0 210 0;
#X connect 0 0 209 0;
#X connect 0 0 208 0;
#X connect 0 0 207 0;
#X connect 0 0 206 0;
#X connect 0 0 205 0;
#X connect 0 0 204 0;
#X connect 0 0 203 0;
#X connect 0 0 245 0;
#X connect 0 0 350 0;
#X connect 1 0 15 0;
#X connect 1 0 452 0;
#X connect 2 0 3 0;
#X connect 3 0 4 1;
#X connect 3 0 453 0;
#X connect 4 0 1 0;
#X connect 6 0 14 0;
#X connect 7 0 14 0;
#X connect 8 0 14 0;
#X connect 9 0 14 0;
#X connect 10 0 14 0;
#X connect 11 0 14 0;
#X connect 12 0 14 0;
#X connect 13 0 14 0;
#X connect 14 0 5 0;
#X connect 15 0 0 0;
#X connect 16 0 88 0;
#X connect 16 0 318 0;
#X connect 17 0 19 0;
#X connect 18 0 16 0;
#X connect 19 0 16 0;
#X connect 20 0 90 0;
#X connect 20 0 319 0;
#X connect 21 0 20 0;
#X connect 22 0 20 0;
#X connect 23 0 22 0;
#X connect 24 0 92 0;
#X connect 24 0 320 0;
#X connect 25 0 24 0;
#X connect 26 0 24 0;
#X connect 27 0 94 0;
#X connect 27 0 321 0;
#X connect 28 0 27 0;
#X connect 29 0 27 0;
#X connect 30 0 96 0;
#X connect 30 0 322 0;
#X connect 31 0 30 0;
#X connect 32 0 30 0;
#X connect 33 0 98 0;
#X connect 33 0 323 0;
#X connect 34 0 33 0;
#X connect 35 0 33 0;
#X connect 36 0 100 0;
#X connect 36 0 324 0;
#X connect 37 0 36 0;
#X connect 38 0 36 0;
#X connect 39 0 102 0;
#X connect 39 0 325 0;
#X connect 40 0 39 0;
#X connect 41 0 39 0;
#X connect 42 0 26 0;
#X connect 43 0 29 0;
#X connect 44 0 32 0;
#X connect 45 0 35 0;
#X connect 46 0 38 0;
#X connect 47 0 41 0;
#X connect 48 0 104 0;
#X connect 48 0 326 0;
#X connect 49 0 48 0;
#X connect 50 0 48 0;
#X connect 51 0 106 0;
#X connect 51 0 327 0;
#X connect 52 0 51 0;
#X connect 53 0 51 0;
#X connect 54 0 108 0;
#X connect 54 0 328 0;
#X connect 55 0 54 0;
#X connect 56 0 54 0;
#X connect 57 0 110 0;
#X connect 57 0 329 0;
#X connect 58 0 57 0;
#X connect 59 0 57 0;
#X connect 60 0 112 0;
#X connect 60 0 330 0;
#X connect 61 0 60 0;
#X connect 62 0 60 0;
#X connect 63 0 114 0;
#X connect 63 0 331 0;
#X connect 64 0 63 0;
#X connect 65 0 63 0;
#X connect 66 0 116 0;
#X connect 66 0 332 0;
#X connect 67 0 66 0;
#X connect 68 0 66 0;
#X connect 69 0 118 0;
#X connect 69 0 333 0;
#X connect 70 0 69 0;
#X connect 71 0 69 0;
#X connect 72 0 50 0;
#X connect 73 0 53 0;
#X connect 74 0 56 0;
#X connect 75 0 59 0;
#X connect 76 0 62 0;
#X connect 77 0 65 0;
#X connect 78 0 68 0;
#X connect 79 0 71 0;
#X connect 80 0 14 0;
#X connect 81 0 14 0;
#X connect 82 0 14 0;
#X connect 83 0 14 0;
#X connect 84 0 14 0;
#X connect 85 0 14 0;
#X connect 86 0 14 0;
#X connect 87 0 14 0;
#X connect 88 0 89 0;
#X connect 89 0 7 0;
#X connect 90 0 91 0;
#X connect 91 0 6 0;
#X connect 92 0 93 0;
#X connect 93 0 8 0;
#X connect 94 0 95 0;
#X connect 95 0 10 0;
#X connect 96 0 97 0;
#X connect 97 0 9 0;
#X connect 98 0 99 0;
#X connect 99 0 11 0;
#X connect 100 0 101 0;
#X connect 101 0 12 0;
#X connect 102 0 103 0;
#X connect 103 0 13 0;
#X connect 104 0 105 0;
#X connect 105 0 81 0;
#X connect 106 0 107 0;
#X connect 107 0 80 0;
#X connect 108 0 109 0;
#X connect 109 0 82 0;
#X connect 110 0 111 0;
#X connect 111 0 84 0;
#X connect 112 0 113 0;
#X connect 113 0 83 0;
#X connect 114 0 115 0;
#X connect 115 0 85 0;
#X connect 116 0 117 0;
#X connect 117 0 86 0;
#X connect 118 0 119 0;
#X connect 119 0 87 0;
#X connect 121 0 15 1;
#X connect 121 0 245 3;
#X connect 122 0 170 0;
#X connect 122 0 334 0;
#X connect 123 0 122 0;
#X connect 124 0 122 0;
#X connect 125 0 172 0;
#X connect 125 0 335 0;
#X connect 126 0 125 0;
#X connect 127 0 125 0;
#X connect 128 0 174 0;
#X connect 128 0 336 0;
#X connect 129 0 128 0;
#X connect 130 0 128 0;
#X connect 131 0 176 0;
#X connect 131 0 337 0;
#X connect 132 0 131 0;
#X connect 133 0 131 0;
#X connect 134 0 178 0;
#X connect 134 0 338 0;
#X connect 135 0 134 0;
#X connect 136 0 134 0;
#X connect 137 0 180 0;
#X connect 137 0 339 0;
#X connect 138 0 137 0;
#X connect 139 0 137 0;
#X connect 140 0 182 0;
#X connect 140 0 340 0;
#X connect 141 0 140 0;
#X connect 142 0 140 0;
#X connect 143 0 184 0;
#X connect 143 0 341 0;
#X connect 144 0 143 0;
#X connect 145 0 143 0;
#X connect 146 0 186 0;
#X connect 146 0 342 0;
#X connect 147 0 146 0;
#X connect 148 0 146 0;
#X connect 149 0 188 0;
#X connect 149 0 343 0;
#X connect 150 0 149 0;
#X connect 151 0 149 0;
#X connect 152 0 190 0;
#X connect 152 0 344 0;
#X connect 153 0 152 0;
#X connect 154 0 152 0;
#X connect 155 0 192 0;
#X connect 155 0 345 0;
#X connect 156 0 155 0;
#X connect 157 0 155 0;
#X connect 158 0 194 0;
#X connect 158 0 346 0;
#X connect 159 0 158 0;
#X connect 160 0 158 0;
#X connect 161 0 196 0;
#X connect 161 0 347 0;
#X connect 162 0 161 0;
#X connect 163 0 161 0;
#X connect 164 0 198 0;
#X connect 164 0 348 0;
#X connect 165 0 164 0;
#X connect 166 0 164 0;
#X connect 167 0 200 0;
#X connect 167 0 349 0;
#X connect 168 0 167 0;
#X connect 169 0 167 0;
#X connect 170 0 171 0;
#X connect 171 0 219 0;
#X connect 172 0 173 0;
#X connect 173 0 218 0;
#X connect 174 0 175 0;
#X connect 175 0 220 0;
#X connect 176 0 177 0;
#X connect 177 0 222 0;
#X connect 178 0 179 0;
#X connect 179 0 221 0;
#X connect 180 0 181 0;
#X connect 181 0 223 0;
#X connect 182 0 183 0;
#X connect 183 0 224 0;
#X connect 184 0 185 0;
#X connect 185 0 225 0;
#X connect 186 0 187 0;
#X connect 187 0 227 0;
#X connect 188 0 189 0;
#X connect 189 0 226 0;
#X connect 190 0 191 0;
#X connect 191 0 228 0;
#X connect 192 0 193 0;
#X connect 193 0 230 0;
#X connect 194 0 195 0;
#X connect 195 0 229 0;
#X connect 196 0 197 0;
#X connect 197 0 231 0;
#X connect 198 0 199 0;
#X connect 199 0 232 0;
#X connect 200 0 201 0;
#X connect 201 0 233 0;
#X connect 202 0 124 0;
#X connect 203 0 127 0;
#X connect 204 0 130 0;
#X connect 205 0 133 0;
#X connect 206 0 136 0;
#X connect 207 0 139 0;
#X connect 208 0 142 0;
#X connect 209 0 145 0;
#X connect 210 0 148 0;
#X connect 211 0 151 0;
#X connect 212 0 154 0;
#X connect 213 0 157 0;
#X connect 214 0 160 0;
#X connect 215 0 163 0;
#X connect 216 0 166 0;
#X connect 217 0 169 0;
#X connect 218 0 14 0;
#X connect 219 0 14 0;
#X connect 220 0 14 0;
#X connect 221 0 14 0;
#X connect 222 0 14 0;
#X connect 223 0 14 0;
#X connect 224 0 14 0;
#X connect 225 0 14 0;
#X connect 226 0 14 0;
#X connect 227 0 14 0;
#X connect 228 0 14 0;
#X connect 229 0 14 0;
#X connect 230 0 14 0;
#X connect 231 0 14 0;
#X connect 232 0 14 0;
#X connect 233 0 14 0;
#X connect 234 0 239 0;
#X connect 235 0 234 0;
#X connect 237 0 4 0;
#X connect 239 0 420 0;
#X connect 239 0 489 0;
#X connect 239 1 421 0;
#X connect 239 2 422 0;
#X connect 239 3 423 0;
#X connect 239 4 424 0;
#X connect 239 5 425 0;
#X connect 239 6 426 0;
#X connect 239 7 427 0;
#X connect 239 8 428 0;
#X connect 239 9 429 0;
#X connect 239 10 430 0;
#X connect 239 11 431 0;
#X connect 239 12 432 0;
#X connect 239 13 433 0;
#X connect 239 14 434 0;
#X connect 239 15 435 0;
#X connect 239 16 436 0;
#X connect 239 17 437 0;
#X connect 239 18 438 0;
#X connect 239 19 439 0;
#X connect 239 20 440 0;
#X connect 239 21 441 0;
#X connect 239 22 442 0;
#X connect 239 23 443 0;
#X connect 239 24 444 0;
#X connect 239 25 445 0;
#X connect 239 26 446 0;
#X connect 239 27 447 0;
#X connect 239 28 448 0;
#X connect 239 29 449 0;
#X connect 239 30 450 0;
#X connect 239 31 451 0;
#X connect 243 0 18 0;
#X connect 244 0 21 0;
#X connect 245 1 246 0;
#X connect 247 0 18 0;
#X connect 248 0 21 0;
#X connect 249 0 25 0;
#X connect 250 0 25 0;
#X connect 251 0 28 0;
#X connect 252 0 28 0;
#X connect 253 0 31 0;
#X connect 254 0 34 0;
#X connect 255 0 37 0;
#X connect 256 0 40 0;
#X connect 257 0 31 0;
#X connect 258 0 34 0;
#X connect 259 0 37 0;
#X connect 260 0 40 0;
#X connect 261 0 123 0;
#X connect 262 0 126 0;
#X connect 263 0 129 0;
#X connect 264 0 132 0;
#X connect 265 0 135 0;
#X connect 266 0 138 0;
#X connect 267 0 141 0;
#X connect 268 0 144 0;
#X connect 269 0 49 0;
#X connect 270 0 52 0;
#X connect 271 0 55 0;
#X connect 272 0 58 0;
#X connect 273 0 61 0;
#X connect 274 0 64 0;
#X connect 275 0 67 0;
#X connect 276 0 70 0;
#X connect 277 0 147 0;
#X connect 278 0 150 0;
#X connect 279 0 153 0;
#X connect 280 0 156 0;
#X connect 281 0 159 0;
#X connect 282 0 162 0;
#X connect 283 0 165 0;
#X connect 284 0 168 0;
#X connect 285 0 147 0;
#X connect 286 0 49 0;
#X connect 287 0 52 0;
#X connect 288 0 55 0;
#X connect 289 0 58 0;
#X connect 290 0 61 0;
#X connect 291 0 64 0;
#X connect 292 0 67 0;
#X connect 293 0 70 0;
#X connect 294 0 123 0;
#X connect 295 0 126 0;
#X connect 296 0 129 0;
#X connect 297 0 132 0;
#X connect 298 0 135 0;
#X connect 299 0 138 0;
#X connect 300 0 141 0;
#X connect 301 0 144 0;
#X connect 302 0 150 0;
#X connect 303 0 153 0;
#X connect 304 0 156 0;
#X connect 305 0 159 0;
#X connect 306 0 162 0;
#X connect 307 0 165 0;
#X connect 308 0 168 0;
#X connect 309 0 311 0;
#X connect 309 0 351 0;
#X connect 310 0 312 0;
#X connect 310 0 313 0;
#X connect 312 0 309 0;
#X connect 313 0 317 0;
#X connect 314 0 316 0;
#X connect 315 0 314 0;
#X connect 316 0 313 0;
#X connect 316 1 312 0;
#X connect 317 0 311 1;
#X connect 317 0 352 0;
#X connect 353 0 316 0;
#X connect 356 0 7 1;
#X connect 357 0 6 1;
#X connect 358 0 8 1;
#X connect 359 0 10 1;
#X connect 360 0 9 1;
#X connect 361 0 11 1;
#X connect 362 0 12 1;
#X connect 363 0 13 1;
#X connect 364 0 87 1;
#X connect 365 0 86 1;
#X connect 366 0 85 1;
#X connect 367 0 83 1;
#X connect 368 0 84 1;
#X connect 369 0 82 1;
#X connect 370 0 80 1;
#X connect 371 0 81 1;
#X connect 372 0 219 1;
#X connect 373 0 227 1;
#X connect 374 0 218 1;
#X connect 375 0 226 1;
#X connect 376 0 220 1;
#X connect 377 0 228 1;
#X connect 378 0 230 1;
#X connect 379 0 222 1;
#X connect 380 0 221 1;
#X connect 381 0 229 1;
#X connect 382 0 223 1;
#X connect 383 0 231 1;
#X connect 384 0 232 1;
#X connect 385 0 224 1;
#X connect 386 0 225 1;
#X connect 387 0 233 1;
#X connect 420 0 388 0;
#X connect 421 0 389 0;
#X connect 422 0 390 0;
#X connect 423 0 394 0;
#X connect 424 0 396 0;
#X connect 425 0 398 0;
#X connect 426 0 400 0;
#X connect 427 0 402 0;
#X connect 428 0 404 0;
#X connect 429 0 406 0;
#X connect 430 0 408 0;
#X connect 431 0 410 0;
#X connect 432 0 412 0;
#X connect 433 0 414 0;
#X connect 434 0 416 0;
#X connect 435 0 419 0;
#X connect 436 0 391 0;
#X connect 437 0 392 0;
#X connect 438 0 393 0;
#X connect 439 0 395 0;
#X connect 440 0 397 0;
#X connect 441 0 399 0;
#X connect 442 0 401 0;
#X connect 443 0 403 0;
#X connect 444 0 405 0;
#X connect 445 0 407 0;
#X connect 446 0 409 0;
#X connect 447 0 411 0;
#X connect 448 0 413 0;
#X connect 449 0 415 0;
#X connect 450 0 417 0;
#X connect 451 0 418 0;
#X connect 452 0 1 1;
#X connect 492 0 235 0;
#X connect 493 0 234 1;
#X connect 494 0 234 2;
#X connect 495 0 234 3;
#X connect 496 0 245 2;
#X connect 496 0 355 0;
#X connect 497 0 245 1;
#X connect 498 0 121 0;
#X connect 499 0 2 0;
#X connect 500 0 4 0;
#X coords 0 -1 1 1 970 120 2 0 0;
