#N canvas 514 1384 941 648 12;
#X declare -path else;
#X obj 17 229 loadbang;
#X obj 49 70 hsl 128 15 -0.999 0.999 0 0 empty feedback empty -2 -6
0 8 -228856 -1 -1 11753 1;
#X obj 308 427 fbdelay~ 200 -gain;
#X obj 314 300 osc~ 0.1;
#X floatatom 188 4 5 0 0 0 - - -;
#X floatatom 186 49 5 0 1000 0 - - -;
#X floatatom 189 27 5 1 100 0 - - -;
#X obj 49 4 hsl 128 15 0.01 3 1 0 empty rate empty -2 -8 0 10 -228856
-1 -1 6670 1;
#X text 2 4 rate;
#X obj 50 46 hsl 128 15 60 200 1 0 empty depth empty -2 -8 0 10 -228856
-1 -1 5388 1;
#X obj 50 26 hsl 128 15 0 50 0 0 empty delay empty -2 -8 0 10 -228856
-1 -1 5080 1;
#X obj 369 381 rescale~;
#X obj 546 432 f2s~ 10;
#X obj 395 318 f2s~ 10;
#X obj 461 369 f2s~ 10;
#X text 16 201 presets:;
#X text 441 514 The "depth" now has a minimum and maximum delay time
set with [rescale~]. Depending on the parameters \, you can also generate
chorus and flanger like effects. Experiment with all parameters and
check the presets below.;
#X obj 235 522 *~;
#X obj 228 571 outlet~;
#X msg 17 256 \; rate 0.2 \; depth 100 \; delay 20 \; feedback 0.85
\; volume_delay 1;
#X obj 48 93 hsl 128 15 0 0.999 0 0 empty volume_delay empty -2 -6
0 8 -228856 -1 -1 12700 1;
#X msg 14 365 \; rate 0.1 \; depth 30 \; delay 10 \; feedback -0.75
\; volume_delay 1;
#X msg 11 495 \; rate 0.05 \; depth 15 \; delay 5 \; feedback 0.91
\; volume_delay 1;
#X obj 222 221 inlet~;
#X text 1 24 delay;
#X text 2 45 depth;
#X text 7 93 vol.;
#X obj 310 483 pack 0 50;
#X obj 332 516 line~;
#X obj 345 15 inlet;
#X obj 415 12 inlet;
#X obj 473 28 inlet;
#X obj 543 33 inlet;
#X text 518 367 depth aka delay max;
#X text 603 431 feedback;
#X text 454 319 delay min;
#X text 316 280 rate;
#X text 2 69 fback;
#X floatatom 185 69 5 0 0.999 0 - - -;
#X floatatom 186 92 5 0 1 0 - - -;
#X obj 613 155 declare -path else;
#X connect 0 0 19 0;
#X connect 1 0 38 0;
#X connect 2 0 17 0;
#X connect 3 0 11 0;
#X connect 4 0 3 0;
#X connect 5 0 14 0;
#X connect 6 0 13 0;
#X connect 7 0 4 0;
#X connect 9 0 5 0;
#X connect 10 0 6 0;
#X connect 11 0 2 1;
#X connect 12 0 2 2;
#X connect 13 0 11 1;
#X connect 14 0 11 2;
#X connect 17 0 18 0;
#X connect 20 0 27 0;
#X connect 20 0 39 0;
#X connect 23 0 2 0;
#X connect 27 0 28 0;
#X connect 28 0 17 1;
#X connect 29 0 4 0;
#X connect 30 0 6 0;
#X connect 31 0 5 0;
#X connect 32 0 38 0;
#X connect 38 0 12 0;
#X coords 0 -1 1 1 230 120 2 0 0;
