#N canvas 657 1124 982 984 12;
#X obj 465 775 array define grainArray;
#X floatatom 540 371 10 30 100000 0 - - -;
#X obj 511 427 s grain_dur;
#X text 90 867 Clone object = the same of poly~ in max;
#X msg 376 773 next \$1;
#X text 103 768 target next voice in the clone object;
#X obj 137 427 phasor~;
#X obj 173 507 *~;
#X text 207 509 0-dur in samples;
#X floatatom 20 94 10 0 0 1 Sample_lenght - -;
#X obj 200 579 snapshot~;
#X obj 402 522 tgl 15 0 empty empty empty 17 7 0 10 -262144 -1 -1 1
1;
#X obj 398 555 metro 125;
#X floatatom 218 623 10 0 0 0 - - -;
#X floatatom 156 290 5 0 0 0 - - -;
#X obj 198 228 expr $f2 / $f1;
#X obj 450 237 samplerate~;
#X text 199 288 normal speed for this sample!;
#X obj 139 383 * 1;
#X obj 205 345 t b f;
#X floatatom 314 341 5 0.1 4 0 - - -;
#X text 349 340 playback rate (1=normal);
#X text 192 428 0 - 1;
#X text 529 626 grain rate;
#X floatatom 469 504 5 0 0 0 - - -;
#X text 619 396 grain dur;
#X obj 396 596 random 10;
#X obj 393 664 + 50;
#X floatatom 539 555 5 0 20000 0 - - -;
#X floatatom 507 607 5 0 5000 0 - - -;
#X obj 381 865 clone grain 48;
#X text 529 648 ovviamente il rate più è basso e più il flusso è
lineare \; se è alto fa il classico scatto;
#X text 431 665 jitter fx;
#X text 95 788 serve per triggherare le altre istanze;
#X obj 369 981 outlet~;
#X obj 632 323 r grain_durr;
#X obj 680 571 r grain_rate;
#X obj 444 288 r playback;
#X obj 584 506 r randomgran;
#X obj 648 199 loadbang;
#N canvas 850 1381 179 158 presetgrain2 0;
#X obj 34 20 inlet;
#X msg 35 64 \; grain_durr 1500 \; grain_rate 70 \; randomgran 150
\; playback 0.4 \;;
#X connect 0 0 1 0;
#X restore 759 500 pd presetgrain2;
#N canvas 1498 1669 178 196 presetgrain 0;
#X obj 34 20 inlet;
#X msg 35 64 \; grain_durr 285 \; grain_rate 10 \; randomgran 20 \;
playback 0.7 \;;
#X connect 0 0 1 0;
#X restore 813 384 pd presetgrain;
#X obj 760 464 bng 15 250 50 0 empty empty empty 17 7 0 10 -262144
-1 -1;
#X obj 890 465 bng 15 250 50 0 empty empty empty 17 7 0 10 -262144
-1 -1;
#N canvas 850 1381 179 158 presetgrain3 0;
#X obj 34 20 inlet;
#X msg 35 64 \; grain_durr 150 \; grain_rate 10 \; randomgran 75 \;
playback 0.8 \;;
#X connect 0 0 1 0;
#X restore 889 500 pd presetgrain3;
#X obj 829 318 bng 15 250 50 0 empty empty empty 17 7 0 10 -262144
-1 -1;
#X floatatom 107 62 5 0 0 2 Rate_grain #1-rate-grain-r #1-rate-grain-s
;
#X floatatom 108 21 5 0 0 2 Grain_dur #1-grain-dur-r #1-grain-dur-s
;
#X floatatom 19 63 5 0 0 2 Random_grain #1-rand-grain-r #1-rand-grain-s
;
#X floatatom 20 21 5 0 0 2 Playback #1-play-rate-r #1-play-rate-s;
#X obj 196 180 soundfiler;
#X text 348 181 duration in samples;
#X msg 338 122 read -resize samples/metal.wav grainArray;
#X msg 334 93 read -resize samples/texture.wav grainArray;
#X msg 340 151 read -resize samples/toroid_vibra.wav grainArray;
#X obj 189 20 bng 15 250 50 0 empty empty Sample_1 17 7 0 10 -262144
-1 -1;
#X obj 189 40 bng 15 250 50 0 empty empty Sample_2 17 7 0 10 -262144
-1 -1;
#X obj 189 61 bng 15 250 50 0 empty empty Sample_3 17 7 0 10 -262144
-1 -1;
#X obj 595 602 r \$1-rate-grain-s;
#X obj 478 537 + 100;
#X obj 337 376 r \$1-play-rate-s;
#X obj 632 361 r \$1-grain-dur-s;
#X obj 608 527 r \$1-rand-grain-s;
#N canvas 847 1316 878 741 statesave 0;
#X obj 211 28 loadbang;
#X obj 368 446 textfile;
#X msg 650 429 rewind;
#X msg 607 429 bang;
#X obj 116 690 textfile;
#X obj 607 390 t b b;
#X obj 117 356 f;
#X obj 130 579 f;
#X obj 58 400 t b b b;
#X msg 193 579 clear;
#X obj 278 146 outlet;
#X text 320 150 INSTANCE NUMBER;
#X obj 239 82 f \$1;
#X obj 239 118 t f f f;
#X obj 212 61 t b b;
#X obj 58 377 bng 15 250 50 0 empty empty empty 17 7 0 10 -262144 -1
-1;
#X obj 58 233 r SAVE-S;
#X obj 628 306 delay 10;
#X obj 135 187 r \$1-play-rate-s;
#X obj 145 216 r \$1-grain-dur-s;
#X obj 156 245 r \$1-rate-grain-s;
#X obj 169 271 r \$1-rand-grain-s;
#X obj 117 399 pack f f f f;
#X msg 117 437 set \$1 \$2 \$3 \$4;
#X obj 368 468 unpack f f f f;
#X obj 372 498 s \$1-play-rate-r;
#X obj 382 527 s \$1-grain-dur-r;
#X obj 393 556 s \$1-rate-grain-r;
#X obj 406 581 s \$1-rand-grain-r;
#X msg 129 650 write statesave/\$1-grain-ss.txt;
#X msg 369 422 read statesave/\$1-grain-ss.txt;
#X connect 0 0 14 0;
#X connect 1 0 24 0;
#X connect 2 0 1 0;
#X connect 3 0 1 0;
#X connect 5 0 3 0;
#X connect 5 1 2 0;
#X connect 6 0 22 0;
#X connect 7 0 29 0;
#X connect 8 0 7 0;
#X connect 8 1 6 0;
#X connect 8 2 9 0;
#X connect 9 0 4 0;
#X connect 12 0 13 0;
#X connect 13 0 7 1;
#X connect 13 1 30 0;
#X connect 13 2 10 0;
#X connect 14 0 17 0;
#X connect 14 1 12 0;
#X connect 15 0 8 0;
#X connect 16 0 15 0;
#X connect 17 0 5 0;
#X connect 18 0 6 1;
#X connect 19 0 22 1;
#X connect 20 0 22 2;
#X connect 21 0 22 3;
#X connect 22 0 23 0;
#X connect 23 0 4 0;
#X connect 24 0 25 0;
#X connect 24 1 26 0;
#X connect 24 2 27 0;
#X connect 24 3 28 0;
#X connect 29 0 4 0;
#X connect 30 0 1 0;
#X restore 765 80 pd statesave;
#X obj 384 921 *~ 0.95;
#X connect 1 0 2 0;
#X connect 4 0 30 0;
#X connect 6 0 7 0;
#X connect 7 0 10 0;
#X connect 9 0 7 1;
#X connect 10 0 13 0;
#X connect 11 0 12 0;
#X connect 12 0 10 0;
#X connect 12 0 26 0;
#X connect 13 0 4 0;
#X connect 14 0 18 0;
#X connect 15 0 14 0;
#X connect 16 0 15 1;
#X connect 18 0 6 0;
#X connect 19 0 18 0;
#X connect 19 1 18 1;
#X connect 20 0 19 0;
#X connect 24 0 12 1;
#X connect 26 0 27 0;
#X connect 27 0 59 0;
#X connect 28 0 26 1;
#X connect 29 0 27 1;
#X connect 30 0 64 0;
#X connect 35 0 1 0;
#X connect 36 0 29 0;
#X connect 37 0 20 0;
#X connect 38 0 28 0;
#X connect 39 0 41 0;
#X connect 39 0 11 0;
#X connect 39 0 16 0;
#X connect 39 0 53 0;
#X connect 42 0 40 0;
#X connect 43 0 44 0;
#X connect 45 0 41 0;
#X connect 50 0 15 0;
#X connect 50 0 9 0;
#X connect 52 0 50 0;
#X connect 53 0 50 0;
#X connect 54 0 50 0;
#X connect 55 0 53 0;
#X connect 56 0 52 0;
#X connect 57 0 54 0;
#X connect 58 0 29 0;
#X connect 59 0 24 0;
#X connect 60 0 20 0;
#X connect 61 0 1 0;
#X connect 62 0 28 0;
#X connect 64 0 34 0;
#X coords 0 -1 1 1 280 130 2 0 0;
