#N canvas 655 1349 836 661 12;
#X declare -path else;
#X obj 68 234 sigmund~ -npts 2048 -hop 512 -npeak 50 tracks;
#X obj 66 108 tgl 25 1 empty freee empty 17 7 0 10 -228856 -1 -1 0
1;
#X obj 12 43 bng 50 250 50 0 empty empty empty 17 7 0 10 -228856 -1
-1;
#X obj 93 44 bng 50 250 50 0 empty empty empty 17 7 0 10 -228856 -1
-1;
#X obj 307 373 del 15;
#X text 13 7 Freeze \; Unfreeze;
#X obj 172 397 spigot;
#X obj 173 330 lb;
#X obj 433 110 declare -path else;
#X obj 166 429 clone 50 oscillators;
#X obj 171 467 outlet~;
#X obj 66 202 inlet~;
#X text 90 7 Snapshot (when frozen);
#X text 94 110 Pass or Block;
#X connect 0 0 6 0;
#X connect 1 0 6 1;
#X connect 2 0 1 0;
#X connect 3 0 2 0;
#X connect 3 0 4 0;
#X connect 4 0 2 0;
#X connect 6 0 9 0;
#X connect 7 0 1 0;
#X connect 9 0 10 0;
#X connect 11 0 0 0;
#X coords 0 0 1 1 200 140 2 0 0;
