#N canvas 623 1180 858 716 12;
#X msg 118 347 \$1 \, \$2 \$3;
#X obj 64 195 t f f;
#X floatatom 66 164 10 0 0 0 - - -;
#X obj 83 300 pack f f f;
#X text 142 167 start point in samples;
#X obj 129 250 +;
#X floatatom 262 259 5 0 0 0 - - -;
#X text 306 257 grain dur ms;
#X obj 251 302 * 48;
#X obj 416 237 loadbang;
#X obj 417 266 samplerate~;
#X obj 410 302 / 1000;
#X text 289 304 SR;
#X obj 74 44 inlet;
#X obj 114 605 outlet~;
#X obj 121 90 t f b, f 65;
#X obj 570 130 t b b;
#X obj 565 165 del 50;
#X obj 126 523 *~, f 69;
#X obj 667 96 -50;
#X msg 559 214 0;
#X msg 653 167 1;
#X obj 578 268 pack f 50;
#X text 194 347 start (samples) end (samples) time (millisecond);
#X obj 589 309 vline~;
#X obj 118 405 vline~;
#X obj 264 218 r grain_dur1;
#X obj 662 64 r grain_dur1;
#X obj 114 470 tabread4~ grainArray2;
#X text 354 13 GRAIN 2 SUBPATCH;
#X connect 0 0 25 0;
#X connect 1 0 3 0;
#X connect 1 1 5 0;
#X connect 2 0 1 0;
#X connect 3 0 0 0;
#X connect 5 0 3 1;
#X connect 6 0 8 0;
#X connect 6 0 3 2;
#X connect 8 0 5 1;
#X connect 9 0 10 0;
#X connect 10 0 11 0;
#X connect 11 0 8 1;
#X connect 13 0 15 0;
#X connect 15 0 2 0;
#X connect 15 1 16 0;
#X connect 16 0 17 0;
#X connect 16 1 21 0;
#X connect 17 0 20 0;
#X connect 18 0 14 0;
#X connect 19 0 17 1;
#X connect 20 0 22 0;
#X connect 21 0 22 0;
#X connect 22 0 24 0;
#X connect 24 0 18 1;
#X connect 25 0 28 0;
#X connect 26 0 6 0;
#X connect 27 0 19 0;
#X connect 28 0 18 0;
