#N canvas 925 1358 450 300 12;
#X obj 138 95 inlet~;
#X obj 138 127 *~;
#X obj 141 185 outlet~;
#X obj 311 53 inlet;
#X obj 312 81 t f;
#X obj 314 116 pack 0 50;
#X obj 304 179 line~;
#X connect 0 0 1 0;
#X connect 1 0 2 0;
#X connect 3 0 4 0;
#X connect 4 0 5 0;
#X connect 5 0 6 0;
#X connect 6 0 1 1;
