#N canvas 346 1487 1341 341 12;
#X obj 533 164 else/lfo 0.25 -sine;
#X msg 386 49 sine;
#X msg 422 49 tri;
#X msg 452 49 saw;
#X text 29 42 Sine;
#X text 2 64 Triangle;
#X text 33 86 Saw;
#X obj 535 252 outlet;
#X obj 16 18 hsl 128 15 0 10 0 0 \$1-lfo-rate-s \$1-lfo-rate-r Rate_in_Hz
-2 -8 0 10 -262144 -1 -1 100 1;
#X floatatom 149 16 5 0 0 0 - - -;
#X floatatom 74 42 5 0 0 1 Scale_Min_LFO #1-lfo-min-sine-r #1-lfo-min-sine-s
;
#X floatatom 222 44 5 0 0 1 Scale_Max_LFO #1-lfo-max-sine-r #1-lfo-max-sine-s
;
#N canvas 666 186 1024 741 statesave 1;
#X obj 137 29 loadbang;
#X obj 294 447 textfile;
#X msg 576 430 rewind;
#X msg 533 430 bang;
#X obj 42 691 textfile;
#X obj 533 391 t b b;
#X obj 43 357 f;
#X obj 56 580 f;
#X obj -16 401 t b b b;
#X msg 119 580 clear;
#X obj 204 147 outlet;
#X text 254 145 INSTANCE NUMBER;
#X obj 165 83 f \$1;
#X obj 165 119 t f f f;
#X obj 138 62 t b b;
#X obj -16 378 bng 15 250 50 0 empty empty empty 17 7 0 10 -262144
-1 -1;
#X obj -16 234 r SAVE-S;
#X obj 554 307 delay 10;
#X obj 61 188 r \$1-lfo-rate-s;
#X obj 298 499 s \$1-lfo-rate-r;
#X msg 55 651 write statesave/\$1-lfo-ss.txt;
#X msg 295 423 read statesave/\$1-lfo-ss.txt;
#X obj 43 400 pack f f f f f f f;
#X obj 105 272 r \$1-lfo-min-tri-s;
#X obj 136 299 r \$1-lfo-max-tri-s;
#X obj 174 357 r \$1-lfo-max-saw-s;
#X obj 148 330 r \$1-lfo-min-saw-s;
#X obj 328 581 s \$1-lfo-min-tri-r;
#X obj 349 608 s \$1-lfo-max-tri-r;
#X obj 361 639 s \$1-lfo-min-saw-r;
#X obj 387 666 s \$1-lfo-max-saw-r;
#X msg 43 438 set \$1 \$2 \$3 \$4 \$5 \$6 \$7;
#X obj 294 469 unpack f f f f f f f;
#X obj 71 217 r \$1-lfo-min-sine-s;
#X obj 87 247 r \$1-lfo-max-sine-s;
#X obj 309 529 s \$1-lfo-min-sine-r;
#X obj 319 556 s \$1-lfo-max-sine-r;
#X connect 0 0 14 0;
#X connect 1 0 32 0;
#X connect 2 0 1 0;
#X connect 3 0 1 0;
#X connect 5 0 3 0;
#X connect 5 1 2 0;
#X connect 6 0 22 0;
#X connect 7 0 20 0;
#X connect 8 0 7 0;
#X connect 8 1 6 0;
#X connect 8 2 9 0;
#X connect 9 0 4 0;
#X connect 12 0 13 0;
#X connect 13 0 7 1;
#X connect 13 1 21 0;
#X connect 13 2 10 0;
#X connect 14 0 17 0;
#X connect 14 1 12 0;
#X connect 15 0 8 0;
#X connect 16 0 15 0;
#X connect 17 0 5 0;
#X connect 18 0 6 1;
#X connect 20 0 4 0;
#X connect 21 0 1 0;
#X connect 22 0 31 0;
#X connect 23 0 22 3;
#X connect 24 0 22 4;
#X connect 25 0 22 6;
#X connect 26 0 22 5;
#X connect 31 0 4 0;
#X connect 32 0 19 0;
#X connect 32 1 35 0;
#X connect 32 2 36 0;
#X connect 32 3 27 0;
#X connect 32 4 28 0;
#X connect 32 5 29 0;
#X connect 32 6 30 0;
#X connect 33 0 22 1;
#X connect 34 0 22 2;
#X restore 612 46 pd statesave;
#X obj 531 124 r \$1-lfo-rate-s;
#X obj 757 250 outlet;
#X obj 975 252 outlet;
#X obj 659 108 r \$1-lfo-min-sine-s;
#X obj 703 147 r \$1-lfo-max-sine-s;
#X floatatom 74 66 5 0 0 1 Scale_Min_LFO #1-lfo-min-tri-r #1-lfo-min-tri-s
;
#X floatatom 222 66 5 0 0 1 Scale_Max_LFO #1-lfo-max-tri-r #1-lfo-max-tri-s
;
#X floatatom 74 89 5 0 0 1 Scale_Min_LFO #1-lfo-min-saw-r #1-lfo-min-saw-s
;
#X floatatom 222 89 5 0 0 1 Scale_Max_LFO #1-lfo-max-saw-r #1-lfo-max-saw-s
;
#X obj 813 93 r \$1-lfo-min-tri-s;
#X obj 857 132 r \$1-lfo-max-tri-s;
#X obj 1024 133 r \$1-lfo-max-saw-s;
#X obj 980 94 r \$1-lfo-min-saw-s;
#X obj 751 215 cyclone/scale 0 127 0 1;
#X obj 534 210 cyclone/scale 0 127 0 1;
#X obj 974 210 cyclone/scale 0 127 0 1;
#X connect 0 0 27 0;
#X connect 0 1 26 0;
#X connect 0 2 28 0;
#X connect 1 0 0 0;
#X connect 2 0 0 0;
#X connect 3 0 0 0;
#X connect 8 0 9 0;
#X connect 13 0 0 0;
#X connect 16 0 27 3;
#X connect 17 0 27 4;
#X connect 22 0 26 3;
#X connect 23 0 26 4;
#X connect 24 0 28 4;
#X connect 25 0 28 3;
#X connect 26 0 14 0;
#X connect 27 0 7 0;
#X connect 28 0 15 0;
#X coords 0 -1 1 1 360 120 2 0 0;
