#N canvas 279 331 1212 584 10;
#X text 8 13 Grazie a Tommaso Piazza per aver contribuito allo sviluppo
di questa patch;
#X obj 16 605 outlet;
#X obj 75 547 pak 0 0 0 0 0 0 0 0 0 0 0 0 0 0 0 0 0 0 0 0 0 0 0 0 0
0 0 0 0 0 0 0;
#X floatatom 3629 451 8 0 0 0 - - -;
#X floatatom 3510 451 8 0 0 0 - - -;
#X floatatom 3391 451 8 0 0 0 - - -;
#X floatatom 3259 451 8 0 0 0 - - -;
#X floatatom 3140 451 8 0 0 0 - - -;
#X floatatom 3021 451 8 0 0 0 - - -;
#X floatatom 2902 451 8 0 0 0 - - -;
#X floatatom 2809 451 8 0 0 0 - - -;
#X floatatom 2690 451 8 0 0 0 - - -;
#X floatatom 2571 451 8 0 0 0 - - -;
#X floatatom 2452 451 8 0 0 0 - - -;
#X floatatom 2320 451 8 0 0 0 - - -;
#X floatatom 2201 451 8 0 0 0 - - -;
#X floatatom 2082 451 8 0 0 0 - - -;
#X floatatom 1963 451 8 0 0 0 - - -;
#X floatatom 1842 451 8 0 0 0 - - -;
#X floatatom 1723 451 8 0 0 0 - - -;
#X floatatom 1604 451 8 0 0 0 - - -;
#X floatatom 1485 451 8 0 0 0 - - -;
#X floatatom 1353 451 8 0 0 0 - - -;
#X floatatom 1234 451 8 0 0 0 - - -;
#X floatatom 1115 451 8 0 0 0 - - -;
#X floatatom 996 451 8 0 0 0 - - -;
#X floatatom 892 451 8 0 0 0 - - -;
#X floatatom 773 451 8 0 0 0 - - -;
#X floatatom 654 451 8 0 0 0 - - -;
#X floatatom 535 451 8 0 0 0 - - -;
#X floatatom 416 451 8 0 0 0 - - -;
#X floatatom 283 451 8 0 0 0 - - -;
#X obj 288 102 inlet;
#X obj 156 102 inlet;
#X obj 53 102 inlet;
#X floatatom 168 451 8 0 0 0 - - -;
#X text 261 77 se 2 = rapporto di ottava;
#X text 132 77 Divisione dell'ottava;
#X text 49 77 HZ nota;
#X floatatom 288 146 8 0 0 0 - - -;
#X floatatom 49 451 8 0 0 0 - - -;
#X floatatom 53 145 8 0 0 0 - - -;
#X obj 156 314 t b f;
#X floatatom 156 268 8 0 0 0 - - -;
#X floatatom 156 146 8 0 0 0 - - -;
#X obj 156 177 !/ 1;
#X obj 49 390 *;
#X obj 168 390 *;
#X obj 283 390 *;
#X obj 416 390 *;
#X obj 535 390 *;
#X obj 654 390 *;
#X obj 773 390 *;
#X obj 892 390 *;
#X obj 996 390 *;
#X obj 1115 390 *;
#X obj 1234 390 *;
#X obj 1353 390 *;
#X obj 1485 390 *;
#X obj 1604 390 *;
#X obj 1723 390 *;
#X obj 1842 390 *;
#X obj 1963 390 *;
#X obj 2082 390 *;
#X obj 2201 390 *;
#X obj 2320 390 *;
#X obj 2452 390 *;
#X obj 2571 390 *;
#X obj 2690 390 *;
#X obj 2809 390 *;
#X obj 2902 390 *;
#X obj 3021 390 *;
#X obj 3140 390 *;
#X obj 3259 390 *;
#X obj 3391 390 *;
#X obj 3510 390 *;
#X obj 3629 390 *;
#X obj 91 392 pipe 30;
#X obj 213 392 pipe 30;
#X obj 348 394 pipe 30;
#X obj 470 394 pipe 30;
#X obj 586 400 pipe 30;
#X obj 682 398 pipe 30;
#X obj 816 400 pipe 30;
#X obj 938 400 pipe 30;
#X obj 1027 404 pipe 30;
#X obj 1149 404 pipe 30;
#X obj 1284 406 pipe 30;
#X obj 1406 406 pipe 30;
#X obj 1525 411 pipe 30;
#X obj 1652 407 pipe 30;
#X obj 1752 412 pipe 30;
#X obj 1874 412 pipe 30;
#X obj 1987 415 pipe 30;
#X obj 2109 415 pipe 30;
#X obj 2244 417 pipe 30;
#X obj 2366 417 pipe 30;
#X obj 2485 422 pipe 30;
#X obj 2612 418 pipe 30;
#X obj 2713 415 pipe 30;
#X obj 2834 423 pipe 30;
#X obj 2952 417 pipe 30;
#X obj 3079 413 pipe 30;
#X obj 3180 410 pipe 30;
#X obj 3301 418 pipe 30;
#X obj 3430 415 pipe 30;
#X obj 3531 412 pipe 30;
#X obj 155 235 pow;
#X obj 385 106 inlet;
#X floatatom 385 150 8 0 0 0 - - -;
#X obj 376 178 t b f;
#X obj 154 201 t b f;
#X connect 2 0 1 0;
#X connect 3 0 2 31;
#X connect 4 0 2 30;
#X connect 5 0 2 29;
#X connect 6 0 2 28;
#X connect 7 0 2 27;
#X connect 8 0 2 26;
#X connect 9 0 2 25;
#X connect 10 0 2 24;
#X connect 11 0 2 23;
#X connect 12 0 2 22;
#X connect 13 0 2 21;
#X connect 14 0 2 20;
#X connect 15 0 2 19;
#X connect 16 0 2 18;
#X connect 17 0 2 17;
#X connect 18 0 2 16;
#X connect 19 0 2 15;
#X connect 20 0 2 14;
#X connect 21 0 2 13;
#X connect 22 0 2 12;
#X connect 23 0 2 11;
#X connect 24 0 2 10;
#X connect 25 0 2 9;
#X connect 26 0 2 8;
#X connect 27 0 2 7;
#X connect 28 0 2 6;
#X connect 29 0 2 5;
#X connect 30 0 2 4;
#X connect 31 0 2 3;
#X connect 32 0 39 0;
#X connect 33 0 44 0;
#X connect 34 0 41 0;
#X connect 35 0 2 2;
#X connect 39 0 107 0;
#X connect 40 0 2 1;
#X connect 41 0 2 0;
#X connect 41 0 46 0;
#X connect 42 0 46 0;
#X connect 42 0 47 0;
#X connect 42 0 48 0;
#X connect 42 0 49 0;
#X connect 42 0 50 0;
#X connect 42 0 51 0;
#X connect 42 0 52 0;
#X connect 42 0 53 0;
#X connect 42 0 54 0;
#X connect 42 0 55 0;
#X connect 42 0 56 0;
#X connect 42 0 57 0;
#X connect 42 0 58 0;
#X connect 42 0 59 0;
#X connect 42 0 60 0;
#X connect 42 0 61 0;
#X connect 42 0 62 0;
#X connect 42 0 63 0;
#X connect 42 0 64 0;
#X connect 42 0 65 0;
#X connect 42 0 66 0;
#X connect 42 0 67 0;
#X connect 42 0 68 0;
#X connect 42 0 69 0;
#X connect 42 0 70 0;
#X connect 42 0 71 0;
#X connect 42 0 72 0;
#X connect 42 0 73 0;
#X connect 42 0 74 0;
#X connect 42 0 75 0;
#X connect 42 0 76 0;
#X connect 42 1 46 1;
#X connect 42 1 47 1;
#X connect 42 1 48 1;
#X connect 42 1 49 1;
#X connect 42 1 50 1;
#X connect 42 1 51 1;
#X connect 42 1 52 1;
#X connect 42 1 53 1;
#X connect 42 1 54 1;
#X connect 42 1 55 1;
#X connect 42 1 56 1;
#X connect 42 1 57 1;
#X connect 42 1 58 1;
#X connect 42 1 59 1;
#X connect 42 1 60 1;
#X connect 42 1 61 1;
#X connect 42 1 62 1;
#X connect 42 1 63 1;
#X connect 42 1 64 1;
#X connect 42 1 65 1;
#X connect 42 1 66 1;
#X connect 42 1 67 1;
#X connect 42 1 68 1;
#X connect 42 1 69 1;
#X connect 42 1 70 1;
#X connect 42 1 71 1;
#X connect 42 1 72 1;
#X connect 42 1 73 1;
#X connect 42 1 74 1;
#X connect 42 1 75 1;
#X connect 42 1 76 1;
#X connect 43 0 42 0;
#X connect 44 0 45 0;
#X connect 45 0 111 0;
#X connect 46 0 40 0;
#X connect 46 0 77 0;
#X connect 47 0 35 0;
#X connect 47 0 78 0;
#X connect 48 0 31 0;
#X connect 48 0 79 0;
#X connect 49 0 30 0;
#X connect 49 0 80 0;
#X connect 50 0 29 0;
#X connect 50 0 81 0;
#X connect 51 0 28 0;
#X connect 51 0 82 0;
#X connect 52 0 27 0;
#X connect 52 0 83 0;
#X connect 53 0 26 0;
#X connect 53 0 84 0;
#X connect 54 0 25 0;
#X connect 54 0 85 0;
#X connect 55 0 24 0;
#X connect 55 0 86 0;
#X connect 56 0 23 0;
#X connect 56 0 87 0;
#X connect 57 0 22 0;
#X connect 57 0 88 0;
#X connect 58 0 21 0;
#X connect 58 0 89 0;
#X connect 59 0 20 0;
#X connect 59 0 90 0;
#X connect 60 0 19 0;
#X connect 60 0 91 0;
#X connect 61 0 18 0;
#X connect 61 0 92 0;
#X connect 62 0 17 0;
#X connect 62 0 93 0;
#X connect 63 0 16 0;
#X connect 63 0 94 0;
#X connect 64 0 15 0;
#X connect 64 0 95 0;
#X connect 65 0 14 0;
#X connect 65 0 96 0;
#X connect 66 0 13 0;
#X connect 66 0 97 0;
#X connect 67 0 12 0;
#X connect 67 0 98 0;
#X connect 68 0 11 0;
#X connect 68 0 99 0;
#X connect 69 0 10 0;
#X connect 69 0 100 0;
#X connect 70 0 9 0;
#X connect 70 0 101 0;
#X connect 71 0 8 0;
#X connect 71 0 102 0;
#X connect 72 0 7 0;
#X connect 72 0 103 0;
#X connect 73 0 6 0;
#X connect 73 0 104 0;
#X connect 74 0 5 0;
#X connect 74 0 105 0;
#X connect 75 0 4 0;
#X connect 75 0 106 0;
#X connect 76 0 3 0;
#X connect 77 0 47 0;
#X connect 78 0 48 0;
#X connect 79 0 49 0;
#X connect 80 0 50 0;
#X connect 81 0 51 0;
#X connect 82 0 52 0;
#X connect 83 0 53 0;
#X connect 84 0 54 0;
#X connect 85 0 55 0;
#X connect 86 0 56 0;
#X connect 87 0 57 0;
#X connect 88 0 58 0;
#X connect 89 0 59 0;
#X connect 90 0 60 0;
#X connect 91 0 61 0;
#X connect 92 0 62 0;
#X connect 93 0 63 0;
#X connect 94 0 64 0;
#X connect 95 0 65 0;
#X connect 96 0 66 0;
#X connect 97 0 67 0;
#X connect 98 0 68 0;
#X connect 99 0 69 0;
#X connect 100 0 70 0;
#X connect 101 0 71 0;
#X connect 102 0 72 0;
#X connect 103 0 73 0;
#X connect 104 0 74 0;
#X connect 105 0 75 0;
#X connect 106 0 76 0;
#X connect 107 0 43 0;
#X connect 108 0 109 0;
#X connect 109 0 110 0;
#X connect 110 0 45 0;
#X connect 110 1 45 1;
#X connect 111 0 107 0;
#X connect 111 1 107 1;
