#N canvas 279 1381 720 455 12;
#X text 99 41 freq \, amp \, flag;
#X obj 53 42 inlet;
#X msg 53 72 \$3 \$1 \$2;
#X obj 53 105 route -1 0 1;
#X msg 53 171 0;
#X msg 107 171 0;
#X obj 156 332 osc~;
#X obj 205 402 *~;
#X msg 148 171 8;
#X obj 184 173 unpack;
#X obj 205 437 outlet~;
#X obj 347 252 cents2ratio;
#X obj 223 243 f2s~ 8;
#X obj 148 143 t b l;
#X text 148 98 Route according to flag (-1 discard/0 keep/1 new),
f 25;
#X obj 156 241 f2s~;
#X obj 347 52 inlet;
#X text 236 174 freq/amp;
#X text 127 71 change list order;
#X obj 156 303 *~ 1;
#X connect 1 0 2 0;
#X connect 2 0 3 0;
#X connect 3 0 4 0;
#X connect 3 1 13 0;
#X connect 3 2 4 0;
#X connect 3 2 5 0;
#X connect 4 0 12 0;
#X connect 5 0 15 1;
#X connect 6 0 7 0;
#X connect 7 0 10 0;
#X connect 8 0 15 1;
#X connect 9 0 15 0;
#X connect 9 1 12 0;
#X connect 11 0 19 1;
#X connect 12 0 7 1;
#X connect 13 0 8 0;
#X connect 13 1 9 0;
#X connect 15 0 19 0;
#X connect 16 0 11 0;
#X connect 19 0 6 0;
