#N canvas 687 216 854 665 10;
#X obj 86 433 *~;
#X obj 132 433 *~;
#X obj 358 441 vsl 15 128 0 1 0 1 empty empty volume 0 -9 0 10 -262144
-1 -1 12700 1;
#X obj 9 34 vsl 15 128 0 1 0 1 \$1-amn-rings-s \$1-amn-rings-r amount
0 -9 0 10 -122112 -1 -1 12700 1;
#X obj 48 34 vsl 15 128 0 1 0 1 \$1-gain-rings-s \$1-gain-rings-r gain
0 -9 0 10 -45051 -1 -1 1900 1;
#X obj 79 34 vsl 15 128 0 1 0 1 \$1-time-rings-s \$1-time-rings-r time
0 -9 0 10 -110590 -1 -1 3700 1;
#X obj 172 34 vsl 15 128 0 1 0 1 \$1-lp-rings-s \$1-lp-rings-r lp 0
-9 0 10 -179904 -1 -1 10100 1;
#X obj 111 34 vsl 15 128 0 1 0 1 \$1-diff-rings-s \$1-diff-rings-r
diffusion 0 -9 0 10 -150400 -1 -1 1300 1;
#X msg 246 207 amount \$1;
#X msg 326 208 gain \$1;
#X msg 398 208 time \$1;
#X msg 470 209 diffusion \$1;
#X msg 572 206 lp \$1;
#X obj 86 393 rngs_reverb~;
#X floatatom 292 361 5 1 2 0 amount - -;
#X obj 93 259 inlet~;
#X obj 26 283 inlet~;
#X obj 60 507 outlet~;
#X obj 136 512 outlet~;
#X obj 368 298 loadbang 1;
#X text 43 0 Rings Reverb;
#X obj 236 101 r \$1-amn-rings-s;
#X obj 265 145 clip 0 1;
#X obj 399 92 r \$1-gain-rings-s;
#X obj 402 122 clip 0 1;
#X obj 525 50 r \$1-time-rings-s;
#X obj 519 114 clip 0 1;
#X obj 688 128 r \$1-diff-rings-s;
#X obj 693 171 clip 0 1;
#X obj 736 253 r \$1-lp-rings-s;
#X obj 725 284 clip 0 1;
#N canvas 342 1202 1294 867 statesave 0;
#X obj 733 52 loadbang;
#X obj 669 502 textfile;
#X msg 951 487 rewind;
#X msg 908 487 bang;
#X obj 417 746 textfile;
#X obj 908 448 t b b;
#X obj 418 412 f;
#X obj 431 635 f;
#X obj 128 449 t b b b;
#X msg 494 635 clear;
#X obj 579 202 outlet;
#X text 621 206 INSTANCE NUMBER;
#X obj 540 138 f \$1;
#X obj 540 174 t f f f;
#X obj 513 117 t b b;
#X obj 180 383 bng 15 250 50 0 empty empty empty 17 7 0 10 -262144
-1 -1;
#X obj 144 304 r SAVE-S;
#X obj 959 351 delay 50;
#X obj 418 455 pack f f f f f, f 38;
#X msg 475 711 write statesave/\$1-rings-ss.txt;
#X msg 347 547 set \$1 \$2 \$3 \$4 \$5;
#X obj 374 173 r \$1-gain-rings-s;
#X obj 557 294 r \$1-time-rings-s;
#X obj 690 303 r \$1-diff-rings-s;
#X obj 706 346 r \$1-lp-rings-s;
#X obj 693 524 unpack f f f f f, f 45;
#X obj 267 146 r \$1-amn-rings-s;
#X obj 668 578 s \$1-amn-rings-r;
#X obj 774 641 s \$1-gain-rings-r;
#X obj 817 595 s \$1-time-rings-r;
#X obj 942 593 s \$1-diff-rings-r;
#X msg 678 454 read statesave/\$1-rings-ss.txt;
#X obj 1034 558 s \$1-lp-rings-r;
#X connect 0 0 14 0;
#X connect 1 0 25 0;
#X connect 2 0 1 0;
#X connect 3 0 1 0;
#X connect 5 0 3 0;
#X connect 5 1 2 0;
#X connect 6 0 18 0;
#X connect 7 0 19 0;
#X connect 8 0 7 0;
#X connect 8 1 6 0;
#X connect 8 2 9 0;
#X connect 9 0 4 0;
#X connect 12 0 13 0;
#X connect 13 0 7 1;
#X connect 13 1 31 0;
#X connect 13 2 10 0;
#X connect 14 0 17 0;
#X connect 14 1 12 0;
#X connect 15 0 8 0;
#X connect 16 0 15 0;
#X connect 17 0 5 0;
#X connect 18 0 20 0;
#X connect 19 0 4 0;
#X connect 20 0 4 0;
#X connect 21 0 18 1;
#X connect 22 0 18 2;
#X connect 23 0 18 3;
#X connect 24 0 18 4;
#X connect 25 0 27 0;
#X connect 25 1 28 0;
#X connect 25 2 29 0;
#X connect 25 3 30 0;
#X connect 25 4 32 0;
#X connect 26 0 6 1;
#X connect 31 0 1 0;
#X restore 219 10 pd statesave;
#X msg 204 368 1;
#X connect 0 0 17 0;
#X connect 1 0 18 0;
#X connect 2 0 1 1;
#X connect 2 0 0 1;
#X connect 3 0 8 0;
#X connect 4 0 9 0;
#X connect 5 0 10 0;
#X connect 6 0 12 0;
#X connect 7 0 11 0;
#X connect 8 0 13 0;
#X connect 9 0 13 0;
#X connect 10 0 13 0;
#X connect 11 0 13 0;
#X connect 12 0 13 0;
#X connect 13 0 0 0;
#X connect 13 1 1 0;
#X connect 15 0 13 1;
#X connect 16 0 13 0;
#X connect 19 0 2 0;
#X connect 19 0 32 0;
#X connect 21 0 22 0;
#X connect 22 0 8 0;
#X connect 23 0 24 0;
#X connect 24 0 9 0;
#X connect 25 0 26 0;
#X connect 26 0 10 0;
#X connect 27 0 28 0;
#X connect 28 0 11 0;
#X connect 29 0 30 0;
#X connect 30 0 12 0;
#X connect 32 0 13 2;
#X coords 0 -1 1 1 200 170 2 0 0;
