#N canvas 294 1118 1204 984 12;
#X floatatom 540 371 10 30 100000 0 - - -;
#X text 92 825 Clone object = the same of poly~ in max;
#X msg 376 773 next \$1;
#X text 103 768 target next voice in the clone object;
#X obj 137 427 phasor~;
#X obj 173 507 *~;
#X text 207 509 0-dur in samples;
#X floatatom 17 89 10 0 0 1 Sample_lenght - -;
#X obj 200 579 snapshot~;
#X obj 402 522 tgl 15 0 empty empty empty 17 7 0 10 -262144 -1 -1 1
1;
#X obj 398 555 metro 125;
#X floatatom 218 623 10 0 0 0 - - -;
#X floatatom 152 279 5 0 0 0 - - -;
#X obj 198 228 expr $f2 / $f1;
#X obj 450 237 samplerate~;
#X text 195 277 normal speed for this sample!;
#X obj 139 383 * 1;
#X obj 205 345 t b f;
#X floatatom 313 341 5 0.1 4 0 - - -;
#X text 349 340 playback rate (1=normal);
#X text 192 428 0 - 1;
#X text 529 626 grain rate;
#X floatatom 469 504 5 0 0 0 - - -;
#X text 619 396 grain dur;
#X obj 396 596 random 10;
#X obj 393 664 + 50;
#X floatatom 539 555 5 0 20000 0 - - -;
#X floatatom 507 607 5 0 5000 0 - - -;
#X text 529 648 ovviamente il rate più è basso e più il flusso è
lineare \; se è alto fa il classico scatto;
#X text 431 665 jitter fx;
#X text 95 788 serve per triggherare le altre istanze;
#X obj 387 907 outlet~;
#X obj 795 216 loadbang;
#X floatatom 107 62 5 0 0 2 Rate_grain #1-rate-grain1-r #1-rate-grain1-s
;
#X floatatom 108 21 5 0 0 2 Grain_dur #1-grain-dur1-r #1-grain-dur1-s
;
#X floatatom 19 63 5 0 0 2 Random_grain #1-rand-grain1-r #1-rand-grain1-s
;
#X floatatom 18 23 5 0 0 2 Playback #1-play-rate1-r #1-play-rate1-s
;
#X obj 196 180 soundfiler;
#X obj 195 20 bng 15 250 50 0 empty empty Sample_1 17 7 0 10 -262144
-1 -1;
#X obj 195 41 bng 15 250 50 0 empty empty Sample_2 17 7 0 10 -262144
-1 -1;
#X obj 195 62 bng 15 250 50 0 empty empty Sample_3 17 7 0 10 -262144
-1 -1;
#X obj 478 537 + 100;
#N canvas 637 1217 878 741 statesave 0;
#X obj 211 28 loadbang;
#X obj 368 446 textfile;
#X msg 650 429 rewind;
#X msg 607 429 bang;
#X obj 116 690 textfile;
#X obj 607 390 t b b;
#X obj 117 356 f;
#X obj 130 579 f;
#X obj 58 400 t b b b;
#X msg 193 579 clear;
#X obj 278 146 outlet;
#X text 320 150 INSTANCE NUMBER;
#X obj 239 82 f \$1;
#X obj 239 118 t f f f;
#X obj 212 61 t b b;
#X obj 58 377 bng 15 250 50 0 empty empty empty 17 7 0 10 -262144 -1
-1;
#X obj 58 233 r SAVE-S;
#X obj 628 306 delay 10;
#X obj 117 399 pack f f f f;
#X msg 117 437 set \$1 \$2 \$3 \$4;
#X obj 368 468 unpack f f f f;
#X msg 129 650 write statesave/\$1-grain2-ss.txt;
#X msg 369 422 read statesave/\$1-grain2-ss.txt;
#X obj 135 187 r \$1-play-rate1-s;
#X obj 145 216 r \$1-grain-dur1-s;
#X obj 155 244 r \$1-rate-grain1-s;
#X obj 169 271 r \$1-rand-grain1-s;
#X obj 372 498 s \$1-play-rate1-r;
#X obj 381 527 s \$1-grain-dur1-r;
#X obj 393 556 s \$1-rate-grain1-r;
#X obj 405 581 s \$1-rand-grain1-r;
#X connect 0 0 14 0;
#X connect 1 0 20 0;
#X connect 2 0 1 0;
#X connect 3 0 1 0;
#X connect 5 0 3 0;
#X connect 5 1 2 0;
#X connect 6 0 18 0;
#X connect 7 0 21 0;
#X connect 8 0 7 0;
#X connect 8 1 6 0;
#X connect 8 2 9 0;
#X connect 9 0 4 0;
#X connect 12 0 13 0;
#X connect 13 0 7 1;
#X connect 13 1 22 0;
#X connect 13 2 10 0;
#X connect 14 0 17 0;
#X connect 14 1 12 0;
#X connect 15 0 8 0;
#X connect 16 0 15 0;
#X connect 17 0 5 0;
#X connect 18 0 19 0;
#X connect 19 0 4 0;
#X connect 20 0 27 0;
#X connect 20 1 28 0;
#X connect 20 2 29 0;
#X connect 20 3 30 0;
#X connect 21 0 4 0;
#X connect 22 0 1 0;
#X connect 23 0 6 1;
#X connect 24 0 18 1;
#X connect 25 0 18 2;
#X connect 26 0 18 3;
#X restore 912 97 pd statesave;
#X obj 195 83 bng 15 250 50 0 empty empty Sample_4 17 7 0 10 -262144
-1 -1;
#X obj 465 775 array define grainArray2;
#X msg 480 85 read -resize samples/boom_grain.wav grainArray2;
#X msg 484 114 read -resize samples/waterphone.wav grainArray2;
#X msg 485 143 read -resize samples/gong_vibrato.wav grainArray2;
#X msg 481 174 read -resize samples/molecular.wav grainArray2;
#X obj 314 312 r \$1-play-rate1-s;
#X obj 595 602 r \$1-rate-grain1-s;
#X obj 680 571 r grain_rate1;
#X obj 608 527 r \$1-rand-grain1-s;
#X obj 560 494 r randomgran1;
#X obj 632 361 r \$1-grain-dur1-s;
#X obj 632 323 r grain_durr1;
#X obj 511 427 s grain_dur1;
#X obj 379 827 clone grain2 48;
#X obj 385 861 *~ 0.5;
#X connect 0 0 56 0;
#X connect 2 0 57 0;
#X connect 4 0 5 0;
#X connect 5 0 8 0;
#X connect 7 0 5 1;
#X connect 8 0 11 0;
#X connect 9 0 10 0;
#X connect 10 0 8 0;
#X connect 10 0 24 0;
#X connect 11 0 2 0;
#X connect 12 0 16 0;
#X connect 13 0 12 0;
#X connect 14 0 13 1;
#X connect 16 0 4 0;
#X connect 17 0 16 0;
#X connect 17 1 16 1;
#X connect 18 0 17 0;
#X connect 22 0 10 1;
#X connect 24 0 25 0;
#X connect 25 0 41 0;
#X connect 26 0 24 1;
#X connect 27 0 25 1;
#X connect 32 0 9 0;
#X connect 32 0 14 0;
#X connect 32 0 45 0;
#X connect 37 0 13 0;
#X connect 37 0 7 0;
#X connect 38 0 45 0;
#X connect 39 0 46 0;
#X connect 40 0 47 0;
#X connect 41 0 22 0;
#X connect 43 0 48 0;
#X connect 45 0 37 0;
#X connect 46 0 37 0;
#X connect 47 0 37 0;
#X connect 48 0 37 0;
#X connect 49 0 18 0;
#X connect 50 0 27 0;
#X connect 51 0 27 0;
#X connect 52 0 26 0;
#X connect 53 0 26 0;
#X connect 54 0 0 0;
#X connect 55 0 0 0;
#X connect 57 0 58 0;
#X connect 58 0 31 0;
#X coords 0 -1 1 1 270 117 2 0 0;
