#N canvas 442 180 1295 626 10;
#X obj 86 430 *~;
#X obj 131 431 *~;
#X obj 480 401 vsl 15 128 0 1 0 1 empty empty volume 0 -9 0 10 -262144
-1 -1 3810 1;
#X floatatom 568 558 5 0 0 0 - - -;
#X obj 13 37 vsl 15 128 0 1 0 1 \$1-shape-warps-s \$1-shape-warps-r
shape 0 -9 0 10 -211352 -1 -1 4600 1;
#X obj 53 37 vsl 15 128 0 1 0 1 \$1-algo-warps-s \$1-algo-warps-r algo
0 -9 0 10 -168393 -1 -1 5400 1;
#X obj 91 37 vsl 15 128 0 1 0 1 \$1-timbre-warps-s \$1-timbre-warps-r
timbre 0 -9 0 10 -261088 -1 -1 11700 1;
#X obj 186 37 vsl 15 128 0 1 0 1 \$1-drive1-warps-s \$1-drive1-warps-r
drive1 0 -9 0 10 -261167 -1 -1 12700 1;
#X obj 420 362 wrps~;
#X msg 285 269 shape \$1;
#X msg 354 268 algo \$1;
#X msg 563 268 drive1 \$1;
#X obj 241 37 vsl 15 128 0 1 0 1 \$1-drive2-warps-s \$1-drive2-warps-r
drive2 0 -9 0 10 -261029 -1 -1 3300 1;
#X msg 648 269 drive2 \$1;
#X msg 418 269 timbre \$1;
#X obj 143 37 vsl 15 128 0 127 0 1 \$1-note-warps-s \$1-note-warps-r
note 0 -9 0 10 -259860 -1 -1 9800 1;
#X msg 495 271 note \$1;
#X text 522 15 external R input;
#X text 629 15 external L input;
#X text 368 51 0 = external (R);
#X text 359 70 other (0-3) internal osc;
#X text 522 36 pitch of internal osc;
#X obj 248 339 inlet~;
#X obj 300 326 inlet~;
#X obj 54 476 outlet~;
#X obj 132 498 outlet~;
#X obj 601 356 loadbang;
#X msg 586 400 0.3;
#X text 70 4 Warps Multi-FX Mutable;
#X obj 98 269 r \$1-shape-warps-s;
#X obj 121 310 clip 0 1;
#X obj 583 81 r \$1-algo-warps-s;
#X obj 569 143 clip 0 1;
#X obj 383 144 r \$1-timbre-warps-s;
#X obj 409 185 clip 0 1;
#X obj 750 150 r \$1-note-warps-s;
#X obj 815 290 r \$1-drive1-warps-s;
#X obj 749 193 clip 0 127;
#X obj 827 335 clip 0 1;
#X obj 754 418 r \$1-drive2-warps-s;
#X obj 765 480 clip 0 1;
#N canvas 558 1183 1294 867 statesave 0;
#X obj 733 52 loadbang;
#X obj 687 489 textfile;
#X msg 951 487 rewind;
#X msg 908 487 bang;
#X obj 417 746 textfile;
#X obj 908 448 t b b;
#X obj 418 412 f;
#X obj 431 635 f;
#X obj 128 449 t b b b;
#X msg 494 635 clear;
#X obj 579 202 outlet;
#X text 621 206 INSTANCE NUMBER;
#X obj 540 138 f \$1;
#X obj 540 174 t f f f;
#X obj 513 117 t b b;
#X obj 180 383 bng 15 250 50 0 empty empty empty 17 7 0 10 -262144
-1 -1;
#X obj 144 304 r SAVE-S;
#X obj 959 351 delay 50;
#X msg 347 547 set \$1 \$2 \$3 \$4 \$5;
#X obj 213 126 r \$1-shape-warps-s;
#X obj 354 174 r \$1-algo-warps-s;
#X obj 465 285 r \$1-timbre-warps-s;
#X obj 690 303 r \$1-note-warps-s;
#X obj 706 346 r \$1-drive1-warps-s;
#X obj 732 381 r \$1-drive2-warps-s;
#X obj 418 455 pack f f f f f f, f 38;
#X msg 475 711 write statesave/\$1-warps-ss.txt;
#X msg 678 454 read statesave/\$1-warps-ss.txt;
#X obj 693 524 unpack f f f f f f, f 45;
#X obj 591 587 s \$1-shape-warps-r;
#X obj 719 646 s \$1-algo-warps-r;
#X obj 849 668 s \$1-timbre-warps-r;
#X obj 963 633 s \$1-note-warps-r;
#X obj 968 587 s \$1-drive1-warps-r;
#X obj 1011 542 s \$1-drive2-warps-r;
#X connect 0 0 14 0;
#X connect 1 0 28 0;
#X connect 2 0 1 0;
#X connect 3 0 1 0;
#X connect 5 0 3 0;
#X connect 5 1 2 0;
#X connect 6 0 25 0;
#X connect 7 0 26 0;
#X connect 8 0 7 0;
#X connect 8 1 6 0;
#X connect 8 2 9 0;
#X connect 9 0 4 0;
#X connect 12 0 13 0;
#X connect 13 0 7 1;
#X connect 13 1 27 0;
#X connect 13 2 10 0;
#X connect 14 0 17 0;
#X connect 14 1 12 0;
#X connect 15 0 8 0;
#X connect 16 0 15 0;
#X connect 17 0 5 0;
#X connect 18 0 4 0;
#X connect 19 0 6 1;
#X connect 20 0 25 1;
#X connect 21 0 25 2;
#X connect 22 0 25 3;
#X connect 23 0 25 4;
#X connect 24 0 25 5;
#X connect 25 0 18 0;
#X connect 26 0 4 0;
#X connect 27 0 1 0;
#X connect 28 0 29 0;
#X connect 28 1 30 0;
#X connect 28 2 31 0;
#X connect 28 3 32 0;
#X connect 28 4 33 0;
#X connect 28 5 34 0;
#X restore 293 19 pd statesave;
#X connect 0 0 24 0;
#X connect 1 0 25 0;
#X connect 2 0 1 1;
#X connect 2 0 0 1;
#X connect 2 0 3 0;
#X connect 4 0 9 0;
#X connect 5 0 10 0;
#X connect 6 0 14 0;
#X connect 7 0 11 0;
#X connect 8 0 0 0;
#X connect 8 1 1 0;
#X connect 9 0 8 0;
#X connect 10 0 8 0;
#X connect 11 0 8 0;
#X connect 12 0 13 0;
#X connect 13 0 8 0;
#X connect 14 0 8 0;
#X connect 15 0 16 0;
#X connect 16 0 8 0;
#X connect 22 0 8 0;
#X connect 23 0 8 1;
#X connect 26 0 27 0;
#X connect 27 0 2 0;
#X connect 29 0 30 0;
#X connect 30 0 9 0;
#X connect 31 0 32 0;
#X connect 32 0 10 0;
#X connect 33 0 34 0;
#X connect 34 0 14 0;
#X connect 35 0 37 0;
#X connect 36 0 38 0;
#X connect 37 0 16 0;
#X connect 38 0 11 0;
#X connect 39 0 40 0;
#X connect 40 0 13 0;
#X coords 0 -1 1 1 280 173 2 0 0;
